<svg viewBox="0 0 48 48" xmlns="http://www.w3.org/2000/svg"><path d="m0 0h48v48h-48z" fill="none"/><path d="m40.579 6.533-.122-1.343 1.882-.105zm-4.214-1.569-2.407-.432 1.171 1.665zm-1.792 30.121-1.159.689 2.065.964zm6.84-.311 2.065.964-.905-1.653zm-2.346 10.061 1.679-1.54-1.875.205zm7.355-5.727 1.113.538-.481-.938zm-3.73 8.664.739-.752-.579-.473zm-2.852-21.855-.307.873 1.455-.225zm-4.843-.652-1.466.79 1.455-.225zm2.843-6.348-.307.873 1.455-.225zm-1.936-8.958-1.295.252.333.864zm2-2-1.295.252.333.864zm9.15-6.251-.632.4 1.113.538zm-2.146 22.136.47-.943-.697-.272zm2.039-5.117.651-1.051-.983.381zm-7.893-18.019-.632.4 1.113.538zm-5.877 24.17 1.505-1.711-1.841.404zm6.105-14.945-.999 1.774 1.646.584zm-6 20-.999 1.774 1.646.584zm7.236-12.592-.612.982 1.618-.083zm.387 21.982 1.618-.083-1.006-.899zm-3.716-14.209-.64 1.48 1.646-.582zm5.839 3.388 1.618-.083-1.006-.899zm-6.902-15.195-1.327-.703-2.158.351 1.039 1.502zm-2.567 6.282.156 1.493 2.285.918-1-2zm-2.674 16.668 1.418-.492.373-2.434-1.719 1.429zm2.463-25.091.012-1.338-1.494.565.149.846zm3.652 2.662-1.494.565.149.846 1.333-.073zm.286 9.548-1.107-.746-.816 1.06 1.532.451zm0 5-1.107-.746-.816 1.06 1.532.451zm-.286 4.624-1.441-.411.156 1.493 2.285.918zm2.881-11.547-1 1.249 1.906.65zm-6.093-4.102-.907-1.898-1 1.249zm-1.687-3.534-1.844.389 2.076.94zm-3.437-2.367-.088 2.234 1.705-1.777-.472-1.425zm.014-2.913 1.47-1.377-1.425-.727zm7.407 9.239 1.863-2.038-1.699.646zm-.019 21.059 1.319-.719.897-1.994-1.827.039zm-1.634-.594-1.071-.904.673 2.677zm-3.138 6.312.544-2.213-1.446 1.209zm1.746-.803 1.736 1.409 1.483-.221-.759-1.295zm-5.288-.683 1.434-.444.457-2.42-1.767 1.37zm3.33-1.574 2.699-.138-.962-1.154-2.131-.493zm4.637.688 2.495-1.181-2.699-.004zm6.366-30.405 1.863-2.038-1.699.646zm-10.837-8.392-.163 1.392 1.863-2.038zm5.558 27.068 1.871.399-.765-1.535zm6.432-14.969 1.124-.275-1.216-1.07zm-11.5 12.955 2.125.511-.376-1.787-2.699.114zm2.286-21.383-2.699.115.951 1.162 2.124.51zm-9.396 38.604 2.372-2.37v1.697l-2.724 2.721h-.496l-.232-.175-6.879-6.876-2.53-2.529a15.372 15.372 0 0 1 -4.531-10.939v-24.137l3.228 3.228a13.137 13.137 0 0 1 11.159-6.22h.01v.001a12.99 12.99 0 0 1 5.871 1.386l-.537 1.072a11.81 11.81 0 0 0 -5.339-1.26 11.927 11.927 0 0 0 -10.278 5.907l8.674 8.673.005 9.515a11.98 11.98 0 0 0 3.199 0l.005-9.515 2.117-2.116.848.848-1.766 1.767-.005 10.033-.495.088c-.559.099-1.129.15-1.7.176v2.66l2.833 2.833c.409.407 1.028.512 1.563.345v1.238c-.856.142-1.78-.103-2.411-.735l-.805-.804c-.048 1.003-.825 1.803-1.784 1.803s-1.736-.8-1.784-1.803l-.805.804c-.399.4-.917.638-1.459.732l2.238 2.238a8.097 8.097 0 0 1 1.81 2.755 8.082 8.082 0 0 1 1.81-2.756l.973-.972.848.848-.973.973a6.876 6.876 0 0 0 -2.014 4.576l3.362-3.361.848.848-4.226 4.225zm-6.943-18.302-2.04 2.04 1.023 1.023v-.021l.6.6 4.529-4.529c-.034-.006-.068-.008-.102-.013l-.495-.088-.005-9.948a6.79 6.79 0 0 0 -4.115-1.363c-1.297 0-2.485.589-3.473 1.387v5.592l.584.585-.584.583v1.274c0 .308.027.612.066.912l1.344-1.344.848.848-1.867 1.867c.21.606.503 1.18.875 1.708l1.962-1.962zm.224 12.841 5.52 5.517v-2.58l-5.536-5.536zm3.434-3.406-3.475-3.475v.527l.013 2.048 5.475 5.475a6.866 6.866 0 0 0 -2.013-4.575zm2.053-7.499.006-2.66-.069-.003-5.218 5.218.278.278c.582.58 1.591.578 2.169 0zm-12.589-11.606c1.326-1.892 3.626-3.828 6.274-3.828.632 0 1.251.076 1.851.212l-8.125-8.125zm5.862 21.272v-6.842l-1.872-1.871a8.105 8.105 0 0 1 -2.388-5.766v-6.864c-.998 1.159-1.603 2.383-1.603 2.899v6.671c0 3.811 1.484 7.395 4.181 10.091zm2.503-19.227-.965-.965.965-.965-.707-.707-.965.966-.965-.965-.707.707.965.965-.965.965.707.707.965-.965.965.965z"/></svg>