<svg xmlns="http://www.w3.org/2000/svg" viewBox="0 0 402.668 400"><title>nomios_illustrations3</title><path class="globe_orbs" d="M310.964,150a9.094,9.094,0,1,0,9.1,9.094A9.1,9.1,0,0,0,310.964,150Zm0,16.083a6.99,6.99,0,1,1,6.991-6.989A7,7,0,0,1,310.964,166.081ZM52.767,288.24a9.094,9.094,0,1,0,9.095,9.095A9.1,9.1,0,0,0,52.767,288.24Zm0,16.083a6.99,6.99,0,1,1,6.99-6.988A7,7,0,0,1,52.767,304.323ZM153.411,133.545A15.786,15.786,0,1,0,169.2,149.331,15.8,15.8,0,0,0,153.411,133.545Zm0,29.466a13.681,13.681,0,1,1,13.681-13.68A13.7,13.7,0,0,1,153.411,163.011Zm0-21.019a7.339,7.339,0,1,0,7.338,7.339A7.346,7.346,0,0,0,153.411,141.992Zm0,12.574a5.235,5.235,0,1,1,5.234-5.235A5.242,5.242,0,0,1,153.411,154.566Z"/><path d="M47.784,239.781c-4.526-1.842-8.813-3.763-12.745-5.71l.933-1.887c3.887,1.925,8.127,3.825,12.606,5.648ZM15.256,221.905a104.047,104.047,0,0,0,15.337,9.873l1-1.854a101.967,101.967,0,0,1-15.025-9.67ZM.023,196.22c-.351,7.382,3.313,14.763,10.894,21.94l1.447-1.529C5.248,209.9,1.8,203.062,2.124,196.321ZM21.467,172.2l-1.073-1.811C9.575,176.787,2.981,183.9.8,191.535l2.022.58C4.851,185.016,11.124,178.315,21.467,172.2ZM335.132,53.939l1.151-1.761c-6.5-4.25-15.817-5.274-27.7-3.04l.386,2.068C320.308,49.077,329.1,50,335.132,53.939Zm11.236,18.627c-.281-6.462-2-11.772-5.095-15.783l-1.665,1.287c2.828,3.66,4.395,8.568,4.656,14.587ZM342.56,88.487l2.051.464a70.754,70.754,0,0,0,1.716-11.606l-2.1-.119A69.2,69.2,0,0,1,342.56,88.487Zm.8,5.393-2.026-.569c-.543,1.932-1.178,3.975-1.889,6.07l1.993.676C342.157,97.926,342.8,95.848,343.357,93.88ZM340.1,103.8l-1.974-.729q-.647,1.743-1.358,3.529l1.952.781Q339.447,105.575,340.1,103.8Zm-6.078,9.3,1.919.859q.753-1.68,1.447-3.332l-1.94-.816Q334.766,111.443,334.024,113.1ZM214.934,3.5,214.2,1.524c-8.074,3.016-16.316,10.439-24.5,22.06l1.723,1.213C199.354,13.528,207.267,6.361,214.934,3.5Zm9.679-1.237c4.968.653,9.65,3.379,13.919,8.1l1.562-1.412C235.48,3.844,230.364.891,224.888.172a20.715,20.715,0,0,0-5.833.072l.316,2.08A18.813,18.813,0,0,1,224.613,2.258Zm26.572,25.356a71.273,71.273,0,0,0-8.824-15.931l-1.673,1.279A69.158,69.158,0,0,1,249.24,28.42ZM254.223,43l2.026-.571c-1-3.547-2.088-6.941-3.233-10.09l-1.977.719C252.165,36.153,253.236,39.5,254.223,43Zm1.854,7.141,2.047-.489q-.456-1.909-.935-3.759l-2.039.531Q255.627,48.246,256.077,50.136ZM109.816,335.621l.823,1.936q3.218-1.366,6.55-2.925l-.892-1.907Q113,334.269,109.816,335.621ZM94.144,341.3l.592,2.018c3.86-1.13,7.963-2.557,12.195-4.238l-.777-1.957C101.983,338.786,97.942,340.192,94.144,341.3Zm-21.59,3.266-.082,2.105c.565.02,1.136.031,1.718.031A67.956,67.956,0,0,0,89.982,344.6l-.5-2.047A62.634,62.634,0,0,1,72.554,344.57Zm138.8,22.266,1.805,1.085c1.289-2.141,2.586-4.411,3.856-6.743l-1.85-1.008C213.912,362.479,212.63,364.721,211.355,366.836Zm-8.4,12.386a80.96,80.96,0,0,1-6.7,7.677l1.489,1.488a83.426,83.426,0,0,0,6.873-7.876c1.2-1.546,2.419-3.219,3.636-4.976l-1.731-1.2C205.335,376.063,204.135,377.707,202.959,379.222Zm-17.7,16.02a21.307,21.307,0,0,1-12.532,2.5c-4.9-.643-9.531-3.309-13.755-7.921l-1.553,1.422c4.569,4.986,9.627,7.876,15.035,8.587a20.394,20.394,0,0,0,2.631.171,24.45,24.45,0,0,0,11.13-2.884,37.147,37.147,0,0,0,4.567-2.777l-1.217-1.718A34.842,34.842,0,0,1,185.262,395.242Zm-45.305-41.9c3.352,13.128,7.582,23.718,12.573,31.477l1.771-1.139c-4.869-7.568-9.008-17.95-12.3-30.86ZM395.692,197.608c-3.9-4.661-9.451-9.259-16.493-13.665l-1.118,1.785c6.857,4.288,12.238,8.74,16,13.23,4.549,5.433,6.726,10.924,6.469,16.321l2.1.1C402.929,209.437,400.59,203.457,395.692,197.608Zm-7.9,37.4,1.27,1.677c5.073-3.847,8.781-7.95,11.019-12.2l-1.862-.98C396.124,227.482,392.615,231.352,387.791,235.011Zm-20.028,11.03.81,1.943c3.067-1.282,5.981-2.627,8.661-4l-.957-1.873C373.644,243.459,370.778,244.781,367.763,246.041Zm-14.532,5.266.633,2.008q2.979-.941,5.8-1.929l-.695-1.985Q356.182,250.378,353.231,251.307ZM49.811,321.249l-2.1.05c.194,7.975,2.494,14.219,6.835,18.56a23.4,23.4,0,0,0,12.6,6.242l.383-2.072a21.323,21.323,0,0,1-11.5-5.658C52.082,334.425,49.99,328.663,49.811,321.249ZM351.7,247.273c0,4.052-1.779,7.761-4.966,11.151.042.441.066.886.066,1.335,0,4.52-2.2,8.61-6.114,12.295-.067,4.7-2.694,8.9-7.261,12.638-.53,4.614-3.671,8.711-8.727,12.329-.965,4.457-4.637,8.373-10.227,11.793-1.509,4.077-5.468,7.649-11.183,10.742-2.21,2.654-5.691,5.083-10.123,7.283-2.48,3.224-7.075,6.125-13.137,8.668-4.3,4.023-12.129,7.537-22.1,10.313-11.076,6.608-31.885,11.637-55.75,11.637-24.01,0-44.93-5.09-55.953-11.757q-3.319-.93-6.292-1.969c.186.9.354,1.828.548,2.707l-2.055.453c-.287-1.3-.54-2.665-.809-4-5.8-2.2-10.382-4.707-13.317-7.451-6.07-2.543-10.665-5.442-13.135-8.662-5.927-2.94-10.132-6.289-11.882-10.033-4.725-2.939-8.026-6.215-9.382-9.839-5.612-3.552-9.294-7.556-10.253-12.025-5.043-3.72-8.179-7.869-8.716-12.458-3.446-2.892-5.781-6.02-6.755-9.385-1.7,3.4-3.3,6.748-4.715,9.989a15.78,15.78,0,0,1-9.138,29.91c-.131.972-.247,1.935-.328,2.873l-2.1-.181c.088-1.025.211-2.074.357-3.14a15.807,15.807,0,1,1,9.274-30.222q2.694-6.174,6.071-12.725c-3.864-3.749-6.047-7.85-6.047-12.313,0-.444.024-.882.066-1.317-3.187-3.453-4.967-7.186-4.967-11.211a13.51,13.51,0,0,1,.265-2.644,16.307,16.307,0,0,1-4.085-10.382,13.956,13.956,0,0,1,.532-3.767,15.616,15.616,0,0,1-2.832-8.752,14.424,14.424,0,0,1,.881-4.906,15.3,15.3,0,0,1-2.543-8.286,14.654,14.654,0,0,1,1.707-6.787,15.093,15.093,0,0,1-1.707-6.885,15.279,15.279,0,0,1,2.338-7.984,14.906,14.906,0,0,1-1.144-5.7,15.7,15.7,0,0,1,2.881-8.865,13.49,13.49,0,0,1,.142-9.341,147.888,147.888,0,0,0-23.316,9.4l-.974-1.867A152.976,152.976,0,0,1,50.349,157.8a20.477,20.477,0,0,1,2.141-2.949,13.674,13.674,0,0,1-.123-1.734c0-3.86,1.626-7.414,4.553-10.681a13.246,13.246,0,0,1-.13-1.752c0-4.538,2.3-8.644,6.371-12.342,0-.076-.012-.152-.012-.229,0-4.6,2.568-8.719,7.062-12.4.38-4.521,3.3-8.557,8.121-12.136.942-4.357,4.474-8.21,9.87-11.6,1.426-3.864,5.121-7.276,10.439-10.269,2.037-4.036,6.733-7.521,13.221-10.49,2.386-3.232,6.65-6.043,12.194-8.458,4.451-3.779,12.155-6.79,21.362-9.117,4.6-3.765,14.366-6.41,25.222-8.117,2.183-.6,4.541-1.122,6.994-1.571a179.73,179.73,0,0,1,9.451-16.52l1.764,1.149c-2.948,4.521-5.829,9.525-8.634,14.932a150.145,150.145,0,0,1,20.923-1.767c.4-.005.8-.008,1.178-.008h.048c.273,0,.559,0,.84.007l.243,0a124.568,124.568,0,0,1,29.262,3.911c11.065,1.862,21.142,4.734,25.982,8.65a76.6,76.6,0,0,1,16.822,6.409,157.328,157.328,0,0,1,25.727-9.884l.555,2.031a152.778,152.778,0,0,0-24.132,9.15A24.313,24.313,0,0,1,280.1,63.87c5.492,2.513,9.75,5.392,12.2,8.637,6.46,3.1,11.178,6.676,13.3,10.734,5.306,3.109,9.025,6.6,10.507,10.491,5.363,3.5,8.874,7.435,9.871,11.8,4.785,3.681,7.72,7.77,8.161,12.275,4.5,3.814,7.071,8.033,7.071,12.664,0,.05-.007.1-.008.15,4.069,3.82,6.367,8.009,6.367,12.575a13.427,13.427,0,0,1-.115,1.66c2.917,3.356,4.538,6.969,4.538,10.847a13.7,13.7,0,0,1-.1,1.614,16.267,16.267,0,0,1,4.289,10.564,13.747,13.747,0,0,1-.66,4.2,178.8,178.8,0,0,1,17.034,8l-1,1.85c-4.5-2.439-9.425-4.783-14.714-7.028a15.335,15.335,0,0,1,1.459,6.436,14.823,14.823,0,0,1-1.117,5.631,15.739,15.739,0,0,1,2.311,8.049,14.961,14.961,0,0,1-1.679,6.826,14.707,14.707,0,0,1-.855,15.077,14.773,14.773,0,0,1,.871,4.933A15.412,15.412,0,0,1,355,230.563a14.281,14.281,0,0,1,.519,3.761,16.035,16.035,0,0,1-4.076,10.33A13.768,13.768,0,0,1,351.7,247.273ZM58.635,284.959A13.458,13.458,0,0,0,56.7,284.2a13.758,13.758,0,0,0-3.936-.574,13.693,13.693,0,0,0-2.12,27.232,13.8,13.8,0,0,0,2.12.178,13.694,13.694,0,0,0,5.868-26.08Zm298.134-63.108a13.67,13.67,0,0,0-.568-3.857,28.059,28.059,0,0,1-5.271,5.31,19.452,19.452,0,0,1,3.653,5.958A14.1,14.1,0,0,0,356.769,221.851Zm-97.3,118.242a4.29,4.29,0,0,1-.051.553c1.476-.332,2.925-.674,4.338-1.03a7.246,7.246,0,0,0,1.584-3.859c-2.258.489-4.57.946-6.914,1.381A5.1,5.1,0,0,1,259.464,340.093Zm-25.678,7.723a2.847,2.847,0,0,1-.791,1.827q5.094-.643,9.843-1.485c1.9-1.357,2.695-2.622,2.695-3.615,0-.066-.038-.133-.044-.2-4.087.636-8.275,1.181-12.5,1.64A2.851,2.851,0,0,1,233.786,347.816Zm-63.217,0a2.884,2.884,0,0,1,.836-1.872c-4.234-.463-8.431-1.012-12.527-1.651a2.238,2.238,0,0,0-.055.25c0,.98.779,2.226,2.626,3.564,3.166.559,6.464,1.058,9.867,1.49A2.806,2.806,0,0,1,170.569,347.816Zm-25.677-7.723a5.125,5.125,0,0,1,1.076-3c-2.356-.438-4.683-.9-6.953-1.388a7.179,7.179,0,0,0,1.555,3.868c1.421.358,2.882.7,4.369,1.037A4.428,4.428,0,0,1,144.892,340.093ZM142.634,58.506a4.8,4.8,0,0,1,.052-.482q-4.065.954-7.78,2.05c-1.925,1.467-2.97,3.014-3.071,4.616,3.933-.946,8.058-1.8,12.3-2.558A5.582,5.582,0,0,1,142.634,58.506Zm26.738-7.923c0-.057.014-.111.017-.167-3.115.4-6.223.86-9.261,1.391a3.958,3.958,0,0,0-.955,2.039c3.6-.539,7.234-1.009,10.855-1.411A3.14,3.14,0,0,1,169.372,50.583Zm-10.17,4.3c.334,1.541,1.882,3.044,4.473,4.428q3.564-.405,7.1-.741c.593-1.375,1.2-2.71,1.8-4.047a10.141,10.141,0,0,1-1.694-1.16C166.944,53.791,163.033,54.3,159.2,54.882Zm25.752-5.974c0,.021-.016.041-.016.062,0,.686.963,1.385,2.536,2.016,5.392-.3,10.508-.452,15.094-.452,4.516,0,9.532.178,14.81.523,1.282-.546,2.04-1.15,2.04-1.765a.891.891,0,0,0-.079-.315c-3.485-.275-6.93-.476-10.27-.591l-.422-.015c-.628-.02-1.245-.033-1.865-.047a12.316,12.316,0,0,1-4.582.735,12.73,12.73,0,0,1-4.469-.738C193.854,48.406,189.517,48.6,184.954,48.908Zm1.992-1.182,1.076-.063q1.025-.058,2.033-.111c.366-.019.729-.036,1.091-.053q.977-.045,1.932-.084l1.078-.041c.653-.023,1.295-.043,1.932-.061l.959-.027.158-.005c.659-.742,3.4-1.04,4.995-1.04,1.532,0,4.059.34,4.839,1.036.218.006.434.01.654.017.645.018,1.3.041,1.962.066l.724.027q1.1.045,2.226.1l.485.025q1.228.064,2.48.143l.214.014c.787.05,1.575.1,2.374.16-2.716-1.63-9.444-3.008-15.9-3.008-7.084,0-14.06,1.349-16.449,2.975Zm33.524,1.566a2.42,2.42,0,0,1-1.182,1.893c4.542.33,9.26.789,14.021,1.372a2.253,2.253,0,0,0,.622-1.426,1.741,1.741,0,0,0-.136-.6q-.946-.132-1.9-.257c-3.8-.486-7.653-.889-11.469-1.206A1.753,1.753,0,0,1,220.47,49.292Zm14.514,1.839a3,3,0,0,1-.469,1.571c3.541.449,7.1.972,10.618,1.562a4.672,4.672,0,0,0-1.168-2.053c-2.913-.562-5.937-1.07-9.027-1.518A2.793,2.793,0,0,1,234.984,51.131Zm-1.277,2.542c-1.948,1.83-5.946,3.183-10.682,4.138,5.928.443,12.092,1.07,18.277,1.878,2.4-1.328,3.72-2.793,3.889-4.337C241.445,54.721,237.6,54.159,233.707,53.673Zm28.015,5.792a5.362,5.362,0,0,1-1.285,3.347q3.867.773,7.583,1.654,1.629-.849,3.237-1.654a11.3,11.3,0,0,0-1.993-1.892q-3.566-1.122-7.617-2.153A4.775,4.775,0,0,1,261.722,59.465ZM206.575,351.106a.627.627,0,0,1-.17.382c4.471-.07,8.865-.263,13.159-.556a.837.837,0,0,0,.06-.266c0-1.021-2.2-2.3-6.058-3.221-3.777.158-7.51.241-11.148.241-3.768,0-7.64-.087-11.562-.256-3.895.919-6.125,2.21-6.125,3.236a.823.823,0,0,0,.055.24c4.291.3,8.685.494,13.155.571a.618.618,0,0,1-.16-.371c0-.809,1.968-1.466,4.4-1.466S206.575,350.3,206.575,351.106Zm-4.4-.413a8.675,8.675,0,0,0-2.888.413,8.644,8.644,0,0,0,2.826.411h.1a8.691,8.691,0,0,0,2.847-.412A8.675,8.675,0,0,0,202.178,350.693Zm.24-4.059c1.911,0,3.835-.029,5.762-.07a60.124,60.124,0,0,0-11.927-.009C198.315,346.6,200.373,346.634,202.418,346.634Zm11.241-.241c5.571-.229,11.147-.622,16.625-1.166-2.319-1.284-6.242-2.523-11.509-3.4-5.691.324-11.2.488-16.356.488-5.255,0-10.891-.173-16.714-.509-5.294.875-9.239,2.112-11.582,3.4,5.478.547,11.059.944,16.635,1.18a56.311,56.311,0,0,1,22.9.013Zm-11.24-5.134c3.37,0,6.853-.074,10.4-.206-3.222-.307-6.768-.491-10.637-.491-3.823,0-7.331.179-10.523.479C195.325,341.181,198.931,341.259,202.419,341.259Zm16.455-.486c6.5-.37,13.15-.952,19.733-1.726a70.185,70.185,0,0,0-13.582-3.354c-8.02.508-15.644.756-22.371.756s-14.37-.3-22.43-.9a72.179,72.179,0,0,0-14.4,3.471c6.59.775,13.249,1.363,19.763,1.738a111.023,111.023,0,0,1,33.292.016Zm-79.258-27.49a141.23,141.23,0,0,1,21.982-5.526c-8.52-.887-17.207-2.032-25.718-3.44-.4.116-.808.231-1.2.349.2,2.669.43,5.287.677,7.881Q137.474,312.927,139.616,313.283Zm-4.165.386c.038.387.084.762.123,1.147.639-.264,1.3-.522,1.975-.779Q136.5,313.857,135.451,313.669ZM172.668,59.5c-.392.909-.778,1.843-1.166,2.768.971.269,1.984.531,3.057.779,2.746.635,5.611,1.145,8.464,1.564,7.027-.39,13.691-.584,19.638-.584,5.986,0,12.676.239,19.717.706,2.6-.354,5.17-.782,7.623-1.3a49.488,49.488,0,0,0,9.568-2.893c-7.161-.9-14.274-1.556-20.991-1.968a121.141,121.141,0,0,1-16.262,1.153,109.838,109.838,0,0,1-15.646-1.228C182.164,58.729,177.462,59.064,172.668,59.5Zm.35-5.962c.063-.138.124-.281.187-.418-.251.026-.5.048-.754.075C172.628,53.308,172.82,53.422,173.018,53.536Zm29.3,5.132c3.244,0,6.562-.154,9.779-.427-3.309-.13-6.494-.2-9.476-.2-2.956,0-6.138.06-9.459.172C196.666,58.531,199.9,58.668,202.316,58.668Zm.345,6.41c-4.147,0-8.685.1-13.459.3,5.043.512,9.711.729,13.162.729,3.819,0,8.7-.2,13.821-.676C211.417,65.2,206.862,65.078,202.661,65.078Zm-31.573-1.83c-.314.757-.629,1.51-.941,2.278q4.13-.357,8.162-.628C175.785,64.425,173.346,63.877,171.088,63.248Zm-.791-3.53q-2.369.23-4.755.493a40.614,40.614,0,0,0,3.934,1.458C169.749,61.017,170.022,60.363,170.3,59.718Zm-2.058,10.613c4.253.793,8.792,1.44,13.391,1.937,7.537-.417,14.686-.625,21.071-.625s13.5.253,20.992.745a143,143,0,0,0,23.8-4.049c-8.506-1.159-17.034-2.006-25.1-2.547a155.98,155.98,0,0,1-20.027,1.369,140.038,140.038,0,0,1-19.325-1.476c-4.326.248-8.8.576-13.345.983C169.207,67.881,168.719,69.092,168.239,70.331ZM240.822,307.37c9.243-.771,18.558-1.817,27.584-3.142a201.691,201.691,0,0,0-27.37-5.611c-13.771,1.142-26.984,1.678-38.248,1.678-10.979,0-23.865-.626-37.346-1.889a224.381,224.381,0,0,0-24.669,4.588c-.816.2-1.592.416-2.377.626,9.044,1.445,18.263,2.6,27.246,3.465a243.238,243.238,0,0,1,36.776-2.776A239.67,239.67,0,0,1,240.822,307.37Zm-38.4-2.009a247.074,247.074,0,0,0-32.5,2.113c11.811,1.025,23.087,1.54,32.848,1.54,10.529,0,22.023-.431,33.729-1.3A242.807,242.807,0,0,0,202.418,305.361Zm-68.449-13.03c.014.307.025.617.039.923,10.449,1.74,21.153,3.1,31.525,4.082a275.254,275.254,0,0,1,75.388.233c11.076-.914,22.716-2.237,34.161-4.058a249.5,249.5,0,0,0-34.865-6.564c-13.466,1.044-26.347,1.537-37.409,1.537-10.812,0-23.411-.575-36.628-1.74A269.25,269.25,0,0,0,133.969,292.331Zm27.318-6.044c-9.118-.895-18.454-2.065-27.643-3.517q.1,4.278.28,8.456A261.3,261.3,0,0,1,161.287,286.287Zm41.521,1.145c10.04,0,20.892-.364,32-1.1a315.145,315.145,0,0,0-32.385-1.779c-9.64,0-20.132.545-30.611,1.581C182.93,287,193.506,287.432,202.808,287.432Zm-.39,8.479a284.54,284.54,0,0,0-31.947,1.868c11.611.975,22.671,1.463,32.317,1.463,9.409,0,20.852-.394,33.167-1.29A283.449,283.449,0,0,0,202.418,295.911Zm68.441,7.95c7.537-1.157,14.843-2.512,21.705-4.068a96.371,96.371,0,0,0-15.076-5.608c-10.513,1.733-21.407,3.071-32.062,4.047A188.316,188.316,0,0,1,270.859,303.861Zm6.812-10.776c5.5-.915,10.95-1.937,16.243-3.1,1.655-.362,3.243-.73,4.8-1.1a116.491,116.491,0,0,0-18.267-6.682c-11.524,1.88-23.5,3.31-35.165,4.325A231.345,231.345,0,0,1,277.671,293.085Zm2.9-11.9c8.633-1.421,16.932-3.088,24.612-5.008a136.351,136.351,0,0,0-18.764-6.558c-12.144,2.118-24.884,3.731-37.341,4.882A256.467,256.467,0,0,1,280.57,281.188Zm5.992-12.592c8.649-1.525,16.916-3.3,24.526-5.328a153.533,153.533,0,0,0-20.224-6.634c-12.195,2.153-25.073,3.792-37.742,4.975A282.677,282.677,0,0,1,286.562,268.6Zm-37.6-7.6c13.478-1.146,26.947-2.791,39.573-4.958-1.058-.262-2.09-.51-3.079-.741a350.979,350.979,0,0,0-37.8-6.358c-16.129,1.32-31.683,1.921-44.807,1.921-13.266,0-29.09-.766-45.52-2.346-7.779.78-15.7,1.779-23.464,3.018-.072,2.044-.146,4.088-.2,6.111,7.685,1.126,15.429,2.068,23.022,2.832a396.869,396.869,0,0,1,46.013-2.962A347.7,347.7,0,0,1,248.958,261ZM202.7,258.569a386.466,386.466,0,0,0-41.313,2.36C176.591,262.326,191,263,202.834,263c12.937,0,26.943-.523,41.055-1.593A341.14,341.14,0,0,0,202.7,258.569Zm-69.055.215q-.06,2.632-.094,5.242c5.959-1.129,12.108-2.1,18.291-2.929C145.789,260.44,139.692,259.668,133.641,258.784ZM111.95,242.045a178.153,178.153,0,0,0-22.731,6.379c7.679,2.224,16.033,4.18,24.729,5.877,5.675-1.321,11.67-2.484,17.831-3.5.065-1.78.118-3.549.2-5.343C125.192,244.463,118.472,243.327,111.95,242.045Zm20.09,2.28c.095-2,.209-4.016.325-6.033-5.933.9-11.8,1.931-17.468,3.107l-.176.039C120.394,242.506,126.2,243.468,132.04,244.325Zm-.153,48.528-.1.025.1.017Zm-12.452-38.687c-.992.208-1.95.418-2.9.629,4.936.928,9.965,1.773,15.031,2.539.045-1.807.114-3.633.177-5.455C127.57,252.57,123.449,253.326,119.435,254.166Zm-10.064-12.638c-8.126-1.66-15.9-3.551-23.073-5.677-2.211,3.25-4.31,6.458-6.343,9.64,2.439.848,4.978,1.662,7.6,2.445A167.324,167.324,0,0,1,109.371,241.528Zm-17.362-17.4c-3.414-.926-6.716-1.9-9.878-2.927a89.875,89.875,0,0,0-14.968,6.571,138.994,138.994,0,0,0,16.46,6.155c.655-.245,1.316-.488,1.989-.728Q88.7,228.7,92.009,224.127Zm-8.4,10.906a76.092,76.092,0,0,0-13.632,6.546q3.755,1.669,7.977,3.2c2.011-3.157,4.083-6.338,6.266-9.56Zm-9.063,19.2a69.483,69.483,0,0,1,11.4-5.669q-3.382-1.046-6.561-2.163Q76.866,250.356,74.545,254.231Zm.458.937a164,164,0,0,0,16.832,5.864,144.533,144.533,0,0,1,19.518-6.11c-8.386-1.7-16.413-3.658-23.789-5.867A70.115,70.115,0,0,0,75,255.168ZM93.449,261.5c7.766,2.218,16.183,4.177,24.927,5.876,4.182-1.068,8.556-2.045,13.06-2.933q.036-2.967.107-5.966c-6-.905-11.938-1.923-17.726-3.058A152.81,152.81,0,0,0,93.449,261.5Zm38.022,17.872q-2.412.546-4.737,1.131,2.377.42,4.777.814C131.5,280.664,131.482,280.019,131.471,279.368Zm-10.63-11.524c3.482.653,7.01,1.263,10.563,1.835,0-1.4,0-2.784.013-4.193Q125.959,266.581,120.841,267.844Zm-2.57.64A139.4,139.4,0,0,0,99.634,274.6c7.729,2.068,16.044,3.885,24.622,5.454q3.506-.918,7.193-1.747c-.036-2.479-.045-4.988-.044-7.509C126.977,270.09,122.587,269.319,118.271,268.484Zm5.9,12.677a118.926,118.926,0,0,0-18.177,6.252c7.351,1.9,15.194,3.572,23.246,5.016.86-.234,1.721-.466,2.6-.69q-.2-4.6-.306-9.306Q127.827,281.828,124.169,281.161Zm-10.224,17.671c5.931,1.409,12.144,2.673,18.5,3.79q-.291-4.248-.5-8.6-1.341-.229-2.674-.467A110.063,110.063,0,0,0,113.945,298.832Zm18.794-66.513c-8.371-1.226-16.649-2.67-24.585-4.338a197.4,197.4,0,0,0-20.214,5.5c-.332.48-.674.964-1,1.444,7.775,2.27,16.271,4.265,25.123,6,6.5-1.416,13.353-2.644,20.362-3.7Q132.569,234.779,132.739,232.319Zm-27.045-4.862c-3.95-.862-7.805-1.78-11.536-2.756q-2.688,3.707-5.237,7.369C94.1,230.371,99.74,228.835,105.694,227.457Zm-8.2-10.765c-5.1,1.273-9.645,2.587-13.672,3.93q4.284,1.342,8.872,2.566Q95.038,219.953,97.489,216.692Zm1-1.329c.733-.969,1.447-1.934,2.193-2.906C93.659,210.77,87,208.89,80.911,206.812A100.36,100.36,0,0,0,65.192,213.4a128.087,128.087,0,0,0,16.974,6.7C87.183,218.363,92.668,216.787,98.489,215.363ZM181.916,73.331c-4.929.28-10.036.653-15.234,1.126q-.883,2.366-1.749,4.784c4.119.658,8.408,1.213,12.742,1.66,9-.551,17.522-.817,25.059-.817,7.52,0,15.992.322,24.918.968,5.191-.474,10.337-1.091,15.192-1.858q2.666-1.717,5.3-3.354c-8.349-1.075-16.663-1.875-24.563-2.4-7.571.722-15.054,1.047-21.152,1.047A201.248,201.248,0,0,1,181.916,73.331Zm20.513.106c4.2,0,8.757-.144,13.412-.431-4.62-.207-9.031-.31-13.14-.31s-8.54.089-13.214.269C193.934,73.274,198.318,73.437,202.429,73.437Zm43.41,6.321q-1.981,1.26-3.979,2.565c7.517.8,15.162,1.814,22.675,3.047a57.109,57.109,0,0,0,11.7-4.766c-6.027-1.307-12.312-2.448-18.676-3.432C254.008,78.168,250.037,79.025,245.839,79.758Zm9.132-2.981q-1.765-.26-3.535-.5-1.6.974-3.2,1.98C250.594,77.8,252.846,77.309,254.971,76.777ZM248.15,247.919c14.434-1.18,28.887-2.922,42.358-5.248a360.9,360.9,0,0,0-41.966-7.016c-16.448,1.386-32.335,2.018-45.7,2.018-13.322,0-29.225-.781-45.73-2.392-7.473.707-15.087,1.6-22.622,2.7-.13,2.223-.255,4.441-.359,6.643,7.865,1.12,15.778,2.052,23.523,2.8,16.21-1.613,32.109-2.343,45.079-2.343A403.139,403.139,0,0,1,248.15,247.919Zm-45.418-1.781c-10.914,0-24.745.534-39.39,1.813,14.485,1.252,28.158,1.861,39.5,1.861,12.479,0,25.944-.479,39.545-1.452A389.369,389.369,0,0,0,202.732,246.138Zm-68.663-.379c-.072,1.579-.114,3.133-.173,4.7,6.017-.954,12.171-1.771,18.324-2.457C146.192,247.364,140.111,246.618,134.069,245.759Zm-1.225-96.471a20.562,20.562,0,1,0,20.561-20.561A20.561,20.561,0,0,0,132.844,149.288Zm4.323-16.2a22.739,22.739,0,0,1,9.752-5.726c-8.872.965-17.884,2.174-26.749,3.663,5.044,1.242,10.358,2.37,15.866,3.37C136.411,133.957,136.753,133.5,137.167,133.087Zm40.64-51.138c-4.592.278-9.343.627-14.21,1.068q-1.1,3.177-2.166,6.444c4.171.7,8.367,1.273,12.478,1.746,10.383-.675,20.231-1,28.855-1,6.94,0,14.65.255,22.777.768q5.859-4.2,11.614-8.055c-3.242-.311-6.449-.581-9.6-.811-8.98.81-17.841,1.173-25.075,1.173C195.384,83.284,186.677,82.849,177.807,81.949Zm24.672.283c5.5,0,11.519-.2,17.64-.594-6.157-.333-12.015-.5-17.385-.5-5.261,0-11.23.134-17.653.423C191.057,82,196.971,82.232,202.479,82.232Zm50.566,138.331c14.146-1.316,28.19-3.189,41.175-5.643a413.263,413.263,0,0,0-50.649-7.693c-14.67,1.111-28.745,1.62-40.744,1.62-11.886,0-25.871-.623-40.488-1.905-8.326.654-16.93,1.519-25.529,2.623q-.435,4.179-.813,8.328c5.659.8,11.336,1.51,16.951,2.118,17.919-1.8,35.5-2.618,49.84-2.618A441.03,441.03,0,0,1,253.045,220.563Zm-50.257-2.117c-12.3,0-27.959.624-44.5,2.114,16.345,1.6,31.907,2.38,44.549,2.38,14.258,0,29.811-.64,45.377-1.948A432.038,432.038,0,0,0,202.788,218.446Zm-66.891.575c-.091,1.016-.185,2.034-.27,3.048,4.032-.557,8.094-1.059,12.154-1.51C143.823,220.1,139.853,219.582,135.9,219.021Zm27.094-93.172q-3.606.285-7.289.628a22.871,22.871,0,0,1,13.953,6.61,23.172,23.172,0,0,1,1.9,2.178q4.327-4,8.668-7.86C174.624,127.023,168.833,126.508,162.991,125.849Zm18.289.618q1.052-.931,2.1-1.853c-4.753.2-9.72.473-14.854.828C172.8,125.858,177.066,126.2,181.28,126.467ZM172.78,137a23.01,23.01,0,0,1,1.2,2.2c9.928.771,19.685,1.17,28.717,1.17,11.779,0,27.116-.646,43.027-2.224-15.432-1.573-30.29-2.363-42.892-2.363-8.6,0-18.8.31-29.815.994Zm122.541,20.068c.02-.149.022-.3.045-.448-10.849-2.241-22.26-4.185-34.07-5.828q-3.478.45-6.975.844c12.816,1.5,25.83,3.517,38.135,6.072C293.426,157.5,294.37,157.283,295.321,157.067Zm-.5,1.142.375.081c0-.056.013-.111.016-.167Zm-37.681-7.967c-16.969-2.237-34.722-3.854-52.942-4.721q-14.322-.681-28.275-.721a22.99,22.99,0,0,1,.409,4.394c9.484-.527,18.466-.781,26.5-.781a451.013,451.013,0,0,1,46.6,2.679Q253.281,150.7,257.144,150.242Zm-54.3-.777c-7.733,0-16.747.246-26.486.783-.03.759-.12,1.515-.225,2.269,9.713.7,18.815,1.046,26.6,1.046,11.4,0,25.94-.574,41.216-1.946C229.158,150.184,214.964,149.465,202.841,149.465Zm-31.464,14.153c11.312-.721,22.035-1.067,31.464-1.067,11.915,0,25.836.674,40.369,2.03a403.259,403.259,0,0,0,46.486-6.307c-13.081-2.62-26.9-4.654-40.375-6.1-16.68,1.69-33.151,2.446-46.587,2.446-8.016,0-17.147-.335-26.778-1.02A22.78,22.78,0,0,1,171.377,163.618Zm-.984,1.118c-.033.036-.064.074-.1.111,11.9.955,23.086,1.419,32.469,1.419,10.682,0,22.181-.39,33.816-1.185-12.114-.983-23.646-1.477-33.739-1.477C193.553,163.6,182.423,163.952,170.393,164.736Zm-1.062,1.131a22.886,22.886,0,0,1-27.083,3.524c-.413,2.468-.795,4.963-1.184,7.453,3.949.549,7.906,1.047,11.84,1.5,17.992-1.77,35.492-2.6,49.93-2.6a452.4,452.4,0,0,1,50.036,3.085c13.443-1.331,27.235-3.24,40.091-5.849a464.987,464.987,0,0,0-50.274-7.365c-14.371,1.171-28.237,1.7-39.923,1.7C192.882,167.318,181.392,166.842,169.331,165.867Zm33.5,10.928c-12.367,0-28.018.626-44.734,2.107,16.385,1.694,32.1,2.51,44.691,2.51,12.388,0,28.141-.615,44.718-2.084A439.565,439.565,0,0,0,202.834,176.8Zm-61.946,1.153c-.09.583-.188,1.159-.277,1.743q3.614-.441,7.225-.83Q144.361,178.431,140.888,177.948Zm-.446,2.818c-.478,3.179-.922,6.387-1.354,9.6,5.171.721,10.356,1.356,15.488,1.908,17.394-1.582,34.277-2.3,48.248-2.3a468.041,468.041,0,0,1,48.766,2.812,421.951,421.951,0,0,0,42.959-6.072c-13.37-2.911-27.728-5.18-41.825-6.81-17.9,1.768-35.5,2.56-49.933,2.56a460.229,460.229,0,0,1-50.22-3.04Q146.559,180.018,140.442,180.766Zm62.382,10.26c-11.894,0-26.767.548-42.6,1.827,15.625,1.509,30.5,2.239,42.585,2.239,13.484,0,28.174-.588,42.9-1.791C229.971,191.767,215.006,191.026,202.824,191.026Zm-63.893.454c-.03.225-.065.445-.094.67-.08.607-.145,1.21-.223,1.817q5.277-.641,10.56-1.173Q144.055,192.193,138.931,191.48Zm1.16-22.041c-2,2.127-3.956,4.259-5.9,6.392q2.385.371,4.781.716C139.338,174.173,139.7,171.792,140.091,169.439Zm-1.226-1.753c-8.918,1.1-17.9,2.447-26.659,4.077,6.289,1.379,12.842,2.6,19.5,3.675Q135.232,171.556,138.865,167.686Zm-9.5,13.507q4.514-.659,9.069-1.233c.116-.774.245-1.537.364-2.309q-2.769-.4-5.521-.831C131.95,178.277,130.662,179.735,129.362,181.193Zm-1.094,1.222q-2.437,2.747-4.81,5.492c4.464.789,8.993,1.511,13.543,2.166q.609-4.539,1.268-9.04Q133.271,181.669,128.268,182.415Zm8.656,26.072c6.471-.827,12.992-1.526,19.44-2.1-6.287-.622-12.651-1.365-18.982-2.232C137.219,205.6,137.077,207.042,136.924,208.487Zm-11.9-25.578c-4.82.756-9.615,1.585-14.332,2.506q5.093,1.1,10.372,2.063C122.375,185.955,123.682,184.432,125.022,182.909Zm-9.611,14.478c6.856-1.209,13.924-2.26,21.049-3.156.1-.786.185-1.568.288-2.355.031-.232.067-.46.1-.691-4.792-.691-9.556-1.453-14.238-2.293Q118.938,193.145,115.411,197.387Zm87.416,10.407c10.888,0,22.54-.367,34.372-1.115-11.89-.943-23.574-1.425-34.391-1.425-9.511,0-20.976.356-33.307,1.168C181.691,207.345,193.13,207.794,202.827,207.794Zm89.648-7.605c-13.39-2.757-27.7-4.864-41.6-6.359-17.269,1.594-34.111,2.314-48.068,2.314a470.135,470.135,0,0,1-48.541-2.778c-5.211.477-10.49,1.029-15.786,1.675-.338,2.668-.677,5.338-.981,7.994,8.439,1.156,16.914,2.094,25.142,2.823,14.5-1.134,28.393-1.656,40.165-1.656,11.962,0,26.051.67,40.707,2.042A473.956,473.956,0,0,0,292.475,200.189Zm2.812-.525a245.354,245.354,0,0,0,25.049-6.03c-7.174-2.383-15.079-4.512-23.4-6.39-12.835,2.648-26.818,4.642-40.693,6.064C269.473,194.862,282.835,196.974,295.287,199.664Zm1.91-13.491a211.858,211.858,0,0,0,23.221-6.114c-7.627-2.451-16.03-4.63-24.866-6.534-11.93,2.526-24.939,4.46-37.936,5.871C271.046,181.07,284.591,183.326,297.2,186.173Zm-1.522-13.749q2.579-.551,5.2-1.164c-.375-.312-.743-.638-1.094-.989A15.692,15.692,0,0,1,295.2,159.42q-1.5-.325-3.017-.64a392.581,392.581,0,0,1-43.657,6.325A447.852,447.852,0,0,1,295.675,172.424Zm.14-17.856a15.727,15.727,0,0,1,3.971-6.655c.273-.274.562-.52.85-.769q-4.049-.968-8.237-1.852c-7.435,1.758-15.448,3.24-23.689,4.468C278.037,151.178,287.116,152.77,295.815,154.568Zm-5.9-9.792c-12.669-2.59-26.06-4.622-39.173-6.092a451.484,451.484,0,0,1-48.04,2.74c-8.379,0-18.053-.389-28.228-1.184a22.552,22.552,0,0,1,.929,2.45q14.237.043,28.9.728c21.045,1,41.5,2.984,60.816,5.795,7.079-.988,14.088-2.162,20.792-3.556C287.285,145.371,288.6,145.073,289.914,144.776Zm-39.039-7.17c10.154-1.131,20.409-2.648,30.006-4.635,1.405-.292,2.75-.594,4.091-.9-13.85-2.608-28.438-4.57-42.461-5.887-14.278,1.414-28.345,2.046-39.85,2.046-5.9,0-12.508-.215-19.474-.637q-4.469,3.951-8.929,8.049c10.251-.616,19.959-.912,28.578-.912A447.252,447.252,0,0,1,250.875,137.606ZM202.661,127.18c9.445,0,21.367-.445,33.961-1.511-12.139-1-23.7-1.495-33.8-1.495-4.889,0-10.307.1-16.093.306q-1.238,1.078-2.475,2.17C190.605,127,196.8,127.18,202.661,127.18Zm39.936-2.065a317.771,317.771,0,0,0,32.281-4.743c1.24-.256,2.424-.522,3.61-.788-12.528-2.248-25.552-3.955-38.085-5.122a375.956,375.956,0,0,1-37.784,2.045c-2.051,0-4.209-.033-6.428-.089q-4.089,3.414-8.188,6.964c5.2-.174,10.176-.261,14.824-.261C214.56,123.121,228.279,123.783,242.6,125.115Zm-45.116-12.506c-7.925.109-16.937.458-26.549,1.105,8.441.854,16.427,1.359,23.31,1.587Q195.862,113.945,197.481,112.609Zm-.054,2.781c1.823.04,3.577.065,5.192.065,8.878,0,20.155-.441,32.029-1.5-11.43-.926-22.308-1.391-31.839-1.391-.636,0-1.318.009-1.972.012Q199.133,113.973,197.427,115.39Zm43.076-2a282.227,282.227,0,0,0,28.029-4.247c2.031-.425,3.952-.871,5.823-1.326-12.634-2.2-25.731-3.843-38.227-4.923-8.791.953-17.515,1.519-25.357,1.753q-4.3,3.352-8.631,6.869l.669,0C213.951,111.516,226.934,112.139,240.5,113.392Zm-29.062-11.927c-2.985-.08-5.879-.123-8.65-.123-7.906,0-17.262.277-27.374.89,10.407,1.057,20.012,1.5,27.151,1.5,1.9,0,3.931-.024,6.061-.073C209.567,102.922,210.505,102.187,211.441,101.465Zm18.794.96c-5.334-.391-10.519-.676-15.472-.855-.863.659-1.724,1.313-2.589,1.982C217.753,103.358,223.89,102.994,230.235,102.425Zm5.973-.6a241.507,241.507,0,0,0,24.543-3.847c1.936-.418,3.92-.884,5.907-1.4C255,94.734,243.042,93.364,231.7,92.479q-2.683.276-5.343.5-5.1,3.666-10.273,7.586C222.477,100.811,229.247,101.233,236.208,101.829Zm-12.041-9.872c-7.619-.462-14.855-.7-21.4-.7s-14.126.2-22.308.621c8.449.769,16.2,1.1,22.069,1.1,6.668,0,13.992-.288,21.422-.864Zm7.552-.546A195.132,195.132,0,0,0,262.1,86.072c-7.188-1.136-14.479-2.076-21.64-2.82q-5.748,3.792-11.617,7.946Q230.272,91.3,231.719,91.411ZM240.7,80.578c-2.38.347-4.8.66-7.245.936q2.541.219,5.115.472C239.282,81.515,239.994,81.04,240.7,80.578ZM161.1,90.469c-.19.587-.373,1.193-.563,1.784q4-.364,7.943-.664C166,91.252,163.533,90.879,161.1,90.469Zm.2-7.229c-6.021.577-12.167,1.285-18.317,2.14,2.328.675,4.809,1.322,7.479,1.932,2.9.664,5.882,1.253,8.885,1.785C159.988,87.125,160.636,85.165,161.3,83.24Zm-3.146,16.708c3.8.626,7.609,1.164,11.361,1.62,12-.866,23.405-1.279,33.279-1.279,3.182,0,6.521.053,9.982.158q4.81-3.687,9.571-7.159c-7.13.506-13.943.745-19.819.745a258.93,258.93,0,0,1-28.712-1.766c-4.423.287-8.98.642-13.622,1.069Q159.156,96.6,158.151,99.948Zm-.3,1.02c-.161.54-.324,1.076-.483,1.619q3.526-.338,7.018-.624Q161.1,101.5,157.848,100.968Zm.076-7.417c-6.331.611-12.783,1.354-19.231,2.253,1.875.514,3.673.967,5.32,1.355,3.929.926,7.976,1.735,12.051,2.443Q156.981,96.542,157.924,93.551Zm-3.147,18.142c3.489.527,6.969.986,10.411,1.391,11.968-.937,23.45-1.439,33.6-1.544q4.244-3.479,8.466-6.806c-1.6.028-3.179.047-4.682.047a283.423,283.423,0,0,1-33.125-2.153c-4.051.292-8.193.639-12.4,1.043Q155.889,107.635,154.777,111.693Zm-.271,1.021c-.121.447-.238.9-.358,1.349q2.975-.3,5.927-.555Q157.282,113.136,154.506,112.714Zm.286-8.825c-7.88.793-15.932,1.8-23.922,3.027,1.9.5,3.727.941,5.414,1.326,5.335,1.218,10.863,2.248,16.408,3.125Q153.722,107.584,154.792,103.889Zm-3.055,19.527c3.616.524,7.277.993,10.953,1.409,7.558-.6,14.941-1.04,21.952-1.32q4.194-3.663,8.386-7.186c-8.642-.312-18.239-1.029-27.943-2.178-3.681.288-7.432.624-11.223,1Q152.776,119.234,151.737,123.416Zm-.238.952c-.123.5-.252,1-.375,1.5q3.366-.339,6.709-.635C155.718,124.966,153.606,124.673,151.5,124.368Zm.133-9c-8.269.86-16.71,1.936-25.053,3.267,7.19,1.755,14.994,3.25,23.072,4.475Q150.622,119.2,151.632,115.364ZM131.1,154.62c-5.21.734-10.412,1.552-15.553,2.471,5.742,1.247,11.719,2.36,17.8,3.344A22.771,22.771,0,0,1,131.1,154.62Zm.992-13.743c-5.67.8-11.328,1.7-16.912,2.727q2.96.714,6.025,1.373c3.248-.294,6.523-.569,9.848-.807A23.364,23.364,0,0,1,132.087,140.877Zm-3.533,5.59q1.031.2,2.067.387c.02-.185.018-.371.043-.556C129.954,146.35,129.261,146.413,128.554,146.467Zm-15.891-2.391c-2.984.567-5.951,1.155-8.869,1.791-3.629.791-7.01,1.6-10.207,2.426,7.739-1.177,15.808-2.173,24.153-2.986Q115.163,144.712,112.663,144.076Zm-20.68,6.571A197.534,197.534,0,0,0,112.9,156.5c5.869-1.085,11.891-2.054,17.974-2.91a23.171,23.171,0,0,1-.336-5.644q-3.024-.556-5.988-1.161C113.178,147.745,102.271,149.032,91.983,150.647Zm20.861,6.947c-3.3.615-6.582,1.257-9.806,1.954-6.723,1.454-12.666,2.971-17.955,4.528a198.877,198.877,0,0,0,24.509,7.1c9.3-1.79,19.042-3.282,28.834-4.492-.424-.362-.858-.709-1.259-1.11a22.892,22.892,0,0,1-3.108-3.9C126.765,160.5,119.623,159.144,112.844,157.594Zm-3.368,14.674q-3.246.629-6.44,1.311c-7.02,1.5-13.2,3.072-18.656,4.683a219.441,219.441,0,0,0,23.75,6.591c5.835-1.179,11.861-2.237,17.983-3.175q2.324-2.627,4.705-5.251C123.491,175.228,116.311,173.842,109.476,172.268Zm-1.443,13.69c-1.317.268-2.642.53-3.945.812-7.49,1.62-14.021,3.318-19.724,5.063A253.048,253.048,0,0,0,110,198.385q1.1-.212,2.2-.417,3.908-4.749,8.012-9.515C116.072,187.682,112,186.851,108.033,185.958Zm5.89,13.209c7,1.358,14.22,2.549,21.492,3.577.283-2.471.6-4.953.912-7.434-7.393.934-14.773,2.046-21.976,3.345C114.21,198.825,114.063,199,113.923,199.167Zm20.985,32.323c7.535,1.072,15.108,1.97,22.528,2.7,16.324-1.537,32.239-2.233,45.326-2.233a426.555,426.555,0,0,1,45.765,2.718c15.71-1.309,31.429-3.292,45.872-5.977a366.967,366.967,0,0,0-41.332-7.159c-18.044,1.691-35.65,2.454-50.231,2.454a483.544,483.544,0,0,1-50.219-2.891c-5.659.573-11.384,1.247-17.085,2.037C135.3,225.937,135.1,228.716,134.908,231.49Zm67.854,1.519c-10.993,0-24.8.515-39.476,1.725,14.506,1.27,28.2,1.886,39.555,1.886,12.722,0,26.468-.5,40.34-1.526C229.247,233.719,215.37,233.009,202.762,233.009Zm-67.935-.386c-.1,1.431-.194,2.861-.279,4.284,5.725-.832,11.539-1.551,17.336-2.163C146.218,234.135,140.507,233.429,134.827,232.623Zm158.23,9.6c9.385-1.689,18.247-3.67,26.245-5.948a184.613,184.613,0,0,0-22.564-7.008c-13.865,2.65-28.793,4.609-43.433,5.966A354.594,354.594,0,0,1,293.057,242.223Zm3.788-13.988c8.592-1.662,16.694-3.579,24.025-5.758a210.317,210.317,0,0,0-24.232-7.01c-12.507,2.432-25.9,4.293-39.183,5.644A361.259,361.259,0,0,1,296.845,228.235Zm-.14-13.8a242.175,242.175,0,0,0,25.524-6.339,233.748,233.748,0,0,0-27.206-7.379c-14.669,2.763-30.567,4.749-46.018,6.066A411.154,411.154,0,0,1,296.705,214.44Zm27.131-6.854a115.066,115.066,0,0,0,15.369-6.12,119.707,119.707,0,0,0-17.2-7.266,235.61,235.61,0,0,1-24.275,6A221.264,221.264,0,0,1,323.836,207.586Zm-1.737-14.5a113.565,113.565,0,0,0,15.852-6.195,133.76,133.76,0,0,0-15.9-6.3A202.221,202.221,0,0,1,299.5,186.7C307.545,188.584,315.172,190.711,322.1,193.088Zm.036-13.615a91.8,91.8,0,0,0,15.288-6.712,128.785,128.785,0,0,0-13.042-5.323,15.586,15.586,0,0,1-2.237,2.833,15.783,15.783,0,0,1-20.171,1.81q-1.9.453-3.837.884C306.667,174.869,314.776,177.036,322.135,179.473Zm.764-13.694,0-.008-.013.005Zm1.5-6.8a13.459,13.459,0,1,0-13.459,13.458A13.459,13.459,0,0,0,324.4,158.982Zm-1.768-10.516a59.563,59.563,0,0,0,7.4-3.939,163.169,163.169,0,0,0-16.5-5.735,139.9,139.9,0,0,1-18.66,5.9q3.48.762,6.868,1.583a15.768,15.768,0,0,1,20.4,1.639C322.32,148.089,322.466,148.283,322.632,148.466ZM311.88,138.318c-7.595-2.167-15.816-4.088-24.362-5.757a296.517,296.517,0,0,1-32.1,5.574c12.49,1.507,25.135,3.518,37.087,6.045A148.382,148.382,0,0,0,311.88,138.318Zm-24.275-6.859a135.421,135.421,0,0,0,18.554-5.7c-7.845-2.166-16.314-4.065-25.068-5.7a284.322,284.322,0,0,1-33.3,5.565C261.056,127,274.681,128.939,287.605,131.459Zm-6.43-12.5a120.88,120.88,0,0,0,18.411-5.755c-7.176-1.865-14.826-3.51-22.687-4.935a241.68,241.68,0,0,1-31.337,5.613C257.379,115.1,269.516,116.791,281.175,118.96Zm-4.209-11.789a95.387,95.387,0,0,0,15.787-5.429c-7.477-1.82-15.44-3.4-23.579-4.748a201.419,201.419,0,0,1-27.871,5.3C253.071,103.427,265.244,105.052,276.966,107.171ZM269.215,95.9a74.905,74.905,0,0,0,14.81-5.625c-6.217-1.43-12.726-2.694-19.351-3.788a172.274,172.274,0,0,1-27.526,5.375C247.67,92.8,258.584,94.148,269.215,95.9ZM164.578,80.242c-.2.565-.4,1.127-.6,1.7q4.02-.363,7.973-.652C169.47,80.976,167,80.627,164.578,80.242Zm-.216-5.57c-4.641.446-9.333.969-14.009,1.574,3.808,1,8.023,1.883,12.477,2.645Q163.59,76.76,164.362,74.672Zm-16.723,1.94c-6.437.877-12.8,1.907-18.921,3.1a61.106,61.106,0,0,0,11.861,4.949c7-1.012,14.1-1.845,21.1-2.511.262-.757.529-1.5.794-2.25A136.54,136.54,0,0,1,147.639,76.612Zm-7.151,9.119c-6.584.958-13.131,2.094-19.49,3.414a82.312,82.312,0,0,0,15.22,5.955c7.3-1.056,14.717-1.93,22.046-2.634.249-.783.493-1.582.744-2.359A152.965,152.965,0,0,1,140.488,85.731Zm-4.359,10.443c-7.295,1.064-14.55,2.315-21.551,3.795-.786.166-1.538.335-2.3.5a104.846,104.846,0,0,0,16.1,5.77c8.789-1.4,17.818-2.544,26.734-3.436.214-.736.433-1.462.65-2.192A184.39,184.39,0,0,1,136.129,96.174Zm-7.849,11.144c-6,.965-11.938,2.059-17.715,3.3-1.8.388-3.524.783-5.21,1.18A127.046,127.046,0,0,0,124,117.994c9.148-1.51,18.579-2.739,27.914-3.7.168-.63.331-1.27.5-1.9A225.265,225.265,0,0,1,128.28,107.318Zm-20.509,14.809c-3.184.685-6.17,1.387-9.007,2.1a142.218,142.218,0,0,0,18.849,6.162c10.182-1.767,20.785-3.191,31.3-4.293.165-.684.337-1.355.5-2.035-8.828-1.333-17.456-3-25.35-5.008C118.553,119.967,113.092,120.981,107.771,122.127Zm-2.646,11.73c-4.39.931-8.447,1.889-12.2,2.867a155.207,155.207,0,0,0,19.762,6.265c6.485-1.225,13.169-2.3,19.918-3.242a22.628,22.628,0,0,1,2.681-4.487c-6.119-1.113-12.053-2.382-17.649-3.812C113.412,132.186,109.228,132.986,105.125,133.857Zm-13.787,3.294a163.67,163.67,0,0,0-16.84,5.405,72.669,72.669,0,0,0,12.816,6.364c7.138-2.062,14.879-3.88,22.965-5.466A145.883,145.883,0,0,1,91.338,137.151ZM77.072,153.295q-4.343,1.56-7.92,3.15a79.96,79.96,0,0,0,14.328,7.026A267.37,267.37,0,0,1,110.293,157a184.157,184.157,0,0,1-20.386-6.011C85.515,151.7,81.223,152.465,77.072,153.295Zm6.385,11.259a133.979,133.979,0,0,0-16.376,6.039,94.872,94.872,0,0,0,15.636,7.083c7.45-2.271,15.657-4.261,24.285-5.989A187.451,187.451,0,0,1,83.457,164.554ZM82.7,178.767a132.027,132.027,0,0,0-16.151,5.973,116.669,116.669,0,0,0,16.127,6.541c7.013-2.22,14.733-4.181,22.875-5.9A207.282,207.282,0,0,1,82.7,178.767Zm-.06,13.608A117.278,117.278,0,0,0,65.3,199.234a118.248,118.248,0,0,0,15.662,6.473,226.552,226.552,0,0,1,26.282-6.777A239.42,239.42,0,0,1,82.638,192.375ZM101.431,211.5q4.534-5.88,9.386-11.817c-.311-.063-.619-.129-.929-.194-1.458.283-2.918.563-4.355.862A225.546,225.546,0,0,0,82.6,206.261C88.434,208.181,94.773,209.924,101.431,211.5Zm.228,3.109q2.1-.485,4.261-.945-1.511-.335-3-.68C102.5,213.524,102.072,214.068,101.659,214.608Zm6.931-1.5c8.372-1.71,17.213-3.151,26.188-4.339.171-1.634.333-3.264.517-4.9-7.52-1.063-14.971-2.3-22.169-3.719q-4.888,5.964-9.455,11.876Q106.107,212.575,108.59,213.1Zm2.659.554c7.357,1.5,14.981,2.809,22.661,3.935q.353-3.862.754-7.749C126.738,210.9,118.861,212.165,111.249,213.658ZM291.069,255.6c8.638-1.545,16.844-3.339,24.347-5.389a174.9,174.9,0,0,0-22.483-6.959c-12.927,2.3-26.651,4.023-40.117,5.247A319.853,319.853,0,0,1,291.069,255.6Zm26.041-5.858a144.612,144.612,0,0,0,17.267-5.955,79.284,79.284,0,0,0-13.519-6.887c-7.812,2.27-16.422,4.231-25.469,5.9A164.657,164.657,0,0,1,317.11,249.738ZM321,235.784a136.135,136.135,0,0,0,16.214-5.8,92.8,92.8,0,0,0-14.735-6.912c-7.169,2.178-15.054,4.084-23.362,5.734A175.176,175.176,0,0,1,321,235.784Zm1.577-13.827a124.463,124.463,0,0,0,16.794-6.374,101.468,101.468,0,0,0-15.519-6.906,232.647,232.647,0,0,1-24.8,6.311A200.723,200.723,0,0,1,322.578,221.957Zm17.842-6.891a54.868,54.868,0,0,0,9.8-6.046,49.615,49.615,0,0,0-9.876-6.94,110.525,110.525,0,0,1-14.941,6.084A98.862,98.862,0,0,1,340.42,215.066Zm-.07-14.173a49.729,49.729,0,0,0,9.847-6.475,59.479,59.479,0,0,0-11.075-6.942,108.647,108.647,0,0,1-15.4,6.174A115.082,115.082,0,0,1,340.35,200.893ZM339.125,186.3a45.984,45.984,0,0,0,9.908-6.61,63.609,63.609,0,0,0-10.475-6.373,87.956,87.956,0,0,1-14.832,6.7A128.558,128.558,0,0,1,339.125,186.3Zm3.432-16.89q-7.641-2.68-16-5.119c-.268.115-.547.228-.819.342a16.079,16.079,0,0,1-.827,1.84,127.065,127.065,0,0,1,13.614,5.645A45.261,45.261,0,0,0,342.557,169.409ZM326.49,162.08c.5.144.979.3,1.475.441a63.375,63.375,0,0,0,7.392-3.932c-2.855-1.341-5.932-2.622-9.2-3.845A15.892,15.892,0,0,1,326.49,162.08Zm17.966,5.766a26.228,26.228,0,0,0,2.528-2.53,67.6,67.6,0,0,0-10.53-6.205,61.209,61.209,0,0,1-6.993,3.858C334.669,164.522,339.68,166.146,344.456,167.846Zm-.929-16.357a78.182,78.182,0,0,0-12.332-6.473,58.557,58.557,0,0,1-7.846,4.263,15.645,15.645,0,0,1,2.348,4.14c3.834,1.416,7.421,2.915,10.715,4.5A28.652,28.652,0,0,0,343.527,151.489Zm-6.161-13.426a86.732,86.732,0,0,0-11.628-5.74,56.258,56.258,0,0,1-10.628,5.812,158.2,158.2,0,0,1,15.963,5.683A26.215,26.215,0,0,0,337.366,138.063Zm-12.782-6.21a170.763,170.763,0,0,0-16.8-5.643,126.489,126.489,0,0,1-17.727,5.738c8.236,1.665,16.152,3.569,23.468,5.715A58.469,58.469,0,0,0,324.584,131.853Zm-16.765-6.76a49.309,49.309,0,0,0,10.711-5.978c-5.29-2-11.132-3.827-17.354-5.489a111.48,111.48,0,0,1-17.492,5.81C292.119,121.066,300.266,122.95,307.819,125.093Zm2.729-18.2c-5-1.73-10.46-3.316-16.226-4.759a88.153,88.153,0,0,1-14.986,5.477c7.568,1.42,14.918,3.049,21.822,4.89A40.351,40.351,0,0,0,310.548,106.891ZM302.466,95.35c-5.24-1.734-10.94-3.311-16.94-4.727A67.219,67.219,0,0,1,271.6,96.3c7.84,1.344,15.492,2.916,22.687,4.714A29.775,29.775,0,0,0,302.466,95.35ZM291.492,84.462c-4.332-1.273-8.925-2.443-13.7-3.509a49.93,49.93,0,0,1-10.845,4.822c6.331,1.084,12.543,2.324,18.481,3.722A21.116,21.116,0,0,0,291.492,84.462Zm-9.158-9.249c-4.059-1.123-8.34-2.153-12.771-3.089a36.408,36.408,0,0,1-9.606,4.337c6,.967,11.914,2.081,17.6,3.344A14.626,14.626,0,0,0,282.334,75.213Zm-9.855-8.567c-.913-.239-1.843-.469-2.777-.7q-3.447,1.782-6.984,3.745,3.378.624,6.674,1.318A6.915,6.915,0,0,0,272.479,66.646ZM261.269,70.5q-4.14,2.328-8.385,4.892,2.352.332,4.7.691a43.041,43.041,0,0,0,10.589-4.248Q264.761,71.139,261.269,70.5Zm-3.259-.561q-4.024-.678-8.1-1.263a116.883,116.883,0,0,1-20.5,4.124c6.579.529,13.372,1.243,20.176,2.141Q253.847,72.328,258.01,69.943Zm-90.151,1.372c-.252.655-.5,1.332-.747,1.994q4.488-.394,8.877-.694C173.231,72.24,170.5,71.807,167.859,71.315Zm-.508-4.433c-3.165.3-6.353.643-9.545,1.024,2.558.742,5.365,1.417,8.34,2.019C166.543,68.9,166.948,67.894,167.351,66.882ZM155.266,68.22c-6.288.792-12.538,1.742-18.562,2.854a48.553,48.553,0,0,0,10.871,4.4c5.732-.774,11.512-1.429,17.22-1.96.325-.868.645-1.748.973-2.6A94.712,94.712,0,0,1,155.266,68.22Zm-20.1,3.134c-4.47.853-8.8,1.8-12.9,2.835a16.67,16.67,0,0,0,5.018,4.64c5.742-1.148,11.711-2.149,17.771-3.008A40.317,40.317,0,0,1,135.164,71.354Zm-7.988,8.668c-4.861.977-9.539,2.058-13.953,3.246a24.266,24.266,0,0,0,6.368,5.087c6-1.272,12.269-2.386,18.654-3.349A54.641,54.641,0,0,1,127.176,80.022Zm-8.166,9.53c-6.4,1.378-11.972,2.821-16.832,4.3a33.391,33.391,0,0,0,8.578,5.875c7.3-1.649,15.058-3.069,23-4.268a72.9,72.9,0,0,1-14.376-5.986C119.257,89.5,119.132,89.526,119.01,89.552Zm-8.419,11.292c-6.259,1.42-11.708,2.9-16.452,4.415a44.215,44.215,0,0,0,9.661,5.832c7.008-1.7,14.466-3.175,22.139-4.451A94.1,94.1,0,0,1,110.591,100.844Zm-6.9,11.356c-6.76,1.64-12.575,3.35-17.558,5.1a54.02,54.02,0,0,0,11.039,6.252c7.641-1.974,15.876-3.684,24.395-5.146A117.284,117.284,0,0,1,103.687,112.2Zm-6.629,12.46a171.433,171.433,0,0,0-17.105,5.3,61.794,61.794,0,0,0,11.389,6.11c7.442-2,15.493-3.743,23.864-5.252A132.42,132.42,0,0,1,97.058,124.66ZM78.87,130.373A84.6,84.6,0,0,0,67.015,135.9a27.337,27.337,0,0,0,6.465,5.963,159.715,159.715,0,0,1,16.327-5.382A59.868,59.868,0,0,1,78.87,130.373ZM73.4,142.993A76.415,76.415,0,0,0,60.929,149.2a26.174,26.174,0,0,0,4.452,4.53q9.047-2.166,18.987-3.936.691-.211,1.391-.421A70.323,70.323,0,0,1,73.4,142.993ZM67.555,155.37c.2.138.392.276.592.412.881-.4,1.779-.79,2.7-1.175C69.732,154.854,68.65,155.115,67.555,155.37Zm-10.133,7.548a35.79,35.79,0,0,0,8.594,7.044,132.16,132.16,0,0,1,15.907-6.011,77.692,77.692,0,0,1-13.834-7.029A65.539,65.539,0,0,0,57.422,162.918Zm8.569,8.177a61.713,61.713,0,0,0-10.629,6.181,47.221,47.221,0,0,0,10.051,6.875A129.208,129.208,0,0,1,81.1,178.183,91.942,91.942,0,0,1,65.991,171.1ZM54.239,191.978a51.351,51.351,0,0,0,9.951,6.685A115.184,115.184,0,0,1,81,191.817a112.73,112.73,0,0,1-15.584-6.543A57.754,57.754,0,0,0,54.239,191.978Zm-.068,14.585a56.343,56.343,0,0,0,9.909,6.268,98.567,98.567,0,0,1,15.254-6.571A114.563,114.563,0,0,1,64.2,199.8,48.236,48.236,0,0,0,54.171,206.563Zm.823,14.155a62.206,62.206,0,0,0,11.045,6.521,87.853,87.853,0,0,1,14.492-6.566,123.794,123.794,0,0,1-16.412-6.69A40.155,40.155,0,0,0,54.994,220.718ZM57.9,234.906a67.768,67.768,0,0,0,10.951,6.171,74.4,74.4,0,0,1,13.183-6.541,134.612,134.612,0,0,1-15.925-6.143A35.067,35.067,0,0,0,57.9,234.906Zm4.042,13.556a76.174,76.174,0,0,0,10.33,5.529q2.443-4.109,5.11-8.312c-2.973-1.095-5.79-2.239-8.421-3.438A30.041,30.041,0,0,0,61.945,248.462ZM69.3,263.283a93.461,93.461,0,0,0,9.737,4.565A56.462,56.462,0,0,1,90.22,261.7a158.189,158.189,0,0,1-16.3-5.814c-.228.156-.437.314-.657.47Q71.2,259.859,69.3,263.283Zm10.881,5.025a176.2,176.2,0,0,0,17.752,5.827,129.349,129.349,0,0,1,17.96-6.12c-8.464-1.7-16.605-3.644-24.12-5.848A57.913,57.913,0,0,0,80.185,268.308Zm6.923,13.252c5.261,1.969,11.056,3.773,17.221,5.414a109.752,109.752,0,0,1,17.443-6.257c-8.285-1.564-16.3-3.369-23.763-5.418A51.877,51.877,0,0,0,87.108,281.56Zm8.5,12.094c5.14,1.736,10.731,3.325,16.625,4.768a99.674,99.674,0,0,1,14.569-5.316c-7.759-1.435-15.3-3.089-22.388-4.966A41.534,41.534,0,0,0,95.61,293.654Zm8.13,11.3c4.986,1.6,10.367,3.067,16.012,4.391a78.972,78.972,0,0,1,12.79-5.116c-.011-.158-.019-.322-.03-.48-6.944-1.214-13.737-2.6-20.184-4.174A37.2,37.2,0,0,0,103.74,304.949Zm17.584,4.751c3.863.882,7.838,1.7,11.885,2.453-.212-2.264-.42-4.534-.595-6.854A81.136,81.136,0,0,0,121.324,309.7Zm12.068-86.252c-7.594,1.092-15.122,2.379-22.348,3.9-.071.014-.137.03-.207.045,7.144,1.439,14.534,2.7,21.982,3.794C133,228.617,133.179,226.042,133.392,223.448Zm.095-1.08c.1-1.213.215-2.432.324-3.649-8.644-1.265-17.191-2.766-25.368-4.509-.165.034-.334.065-.5.1-2.541.526-4.953,1.064-7.271,1.61q-2.991,3.936-5.828,7.832c4.331,1.115,8.827,2.155,13.44,3.119C116.288,225.1,124.8,223.611,133.487,222.368Zm.02,47.647c8.964,1.4,18.059,2.536,26.961,3.42a362.457,362.457,0,0,1,42.186-2.727,317.207,317.207,0,0,1,42.2,3.178c13.266-1.11,26.671-2.731,39.339-4.88a302.965,302.965,0,0,0-35.7-6.984c-16.429,1.4-32.311,2.033-45.653,2.033-13.575,0-29.858-.82-46.71-2.512-7.721.954-15.335,2.133-22.6,3.531C133.509,266.733,133.51,268.372,133.507,270.015Zm69.147,1.746a353,353,0,0,0-37.465,2.122c13.538,1.215,26.478,1.823,37.635,1.823,11.529,0,24.1-.468,36.911-1.416A310.8,310.8,0,0,0,202.654,271.761Zm-69.146-.631c0,2.253,0,4.5.035,6.723,7.125-1.523,14.647-2.791,22.23-3.815C148.392,273.245,140.91,272.276,133.508,271.13Zm.056,7.763c.015.925.038,1.841.057,2.76,10.863,1.728,21.956,3.071,32.663,4.024a325.767,325.767,0,0,1,36.135-2.173,324.919,324.919,0,0,1,38.154,2.418c12.6-.971,25.405-2.415,37.607-4.347a276.008,276.008,0,0,0-33.728-6.664c-14.988,1.257-29.392,1.847-41.628,1.847-12.493,0-27.316-.754-42.75-2.279C150.92,275.61,141.91,277.082,133.564,278.893Zm-4.944,40.548q2.709.588,5.482,1.135-.227-1.911-.432-3.855A43.686,43.686,0,0,0,128.62,319.441Zm5.951-16.449,1.34.223a201.825,201.825,0,0,1,25.107-5.244c-8.916-.92-18.026-2.116-26.964-3.593Q134.27,298.746,134.571,302.992Zm7.092,10.627c11.077,1.786,22.435,3.11,33.227,3.97a199.731,199.731,0,0,1,55.837.188c10.758-.728,22.334-1.888,33.793-3.573a141.211,141.211,0,0,0-23.775-5.832c-13.675,1.153-26.827,1.694-37.983,1.694-10.96,0-23.9-.639-37.41-1.933A150.516,150.516,0,0,0,141.663,313.619Zm60.515,3.154a195.727,195.727,0,0,0-21.917,1.209c8.023.534,15.639.8,22.471.8,6.565,0,14.221-.208,22.485-.67A194.886,194.886,0,0,0,202.178,316.773Zm-48.84,6.986c7.652,1.054,15.333,1.88,22.744,2.474a199.606,199.606,0,0,1,53.446.176c7.312-.5,15.014-1.215,22.778-2.168a106.958,106.958,0,0,0-21.758-5.4c-9.99.675-19.49,1-27.816,1-8.285,0-17.768-.39-27.761-1.174A112.753,112.753,0,0,0,153.338,323.759Zm71.74,10.877c7.713-.489,15.948-1.231,24.247-2.282a89.585,89.585,0,0,0-19.713-4.9c-9.672.666-18.88.984-26.916.984-7.971,0-17.132-.385-26.774-1.154a96.178,96.178,0,0,0-19.7,4.607c8.088,1.145,16.229,2.01,24,2.593a151.224,151.224,0,0,1,21.956-1.523A149.261,149.261,0,0,1,225.078,334.636Zm-22.9-.62a157.449,157.449,0,0,0-16.5.84c6.034.358,11.77.541,16.971.541,5,0,10.749-.144,16.933-.451A156.606,156.606,0,0,0,202.178,334.016Zm.518-6.628c6.254,0,13.56-.2,21.455-.642a197.555,197.555,0,0,0-21.973-1.171,199.571,199.571,0,0,0-20.825,1.044C188.974,327.127,196.216,327.388,202.7,327.388Zm-51.434-2.834a32.294,32.294,0,0,0-8.96,5.062c3.9.729,7.864,1.4,11.864,1.987a83.556,83.556,0,0,1,17.482-4.683C164.957,326.316,158.093,325.528,151.262,324.554Zm-3.273,11.84c5.1.915,10.382,1.713,15.729,2.377a56.469,56.469,0,0,1,12.259-3.562c-7.1-.611-14.457-1.446-21.747-2.517A22.469,22.469,0,0,0,147.989,336.394Zm92.716,2.406c5.335-.662,10.6-1.458,15.7-2.372a20.363,20.363,0,0,0-5.2-3.258c-7.316.964-14.707,1.7-21.86,2.227A54.165,54.165,0,0,1,240.705,338.8Zm10.624-6.706c3.853-.511,7.7-1.091,11.516-1.742a27.628,27.628,0,0,0-8.553-5.3c-6.81.869-13.663,1.562-20.355,2.088A76.792,76.792,0,0,1,251.329,332.094Zm3.1-8.112c7.616-.978,15.248-2.2,22.6-3.692a47.921,47.921,0,0,0-10.461-5.331c-10.41,1.582-21.134,2.755-31.455,3.553A92.447,92.447,0,0,1,254.431,323.982ZM266.6,313.888c6.163-.941,12.272-2.033,18.185-3.3a77.731,77.731,0,0,0-14.147-5.7c-8.588,1.305-17.386,2.347-26.033,3.144A130.979,130.979,0,0,1,266.6,313.888Zm19.748-3.641c5.873-1.3,11.039-2.655,15.563-4.049a29.873,29.873,0,0,0-7.975-5.7c-6.671,1.54-13.736,2.878-20.98,4.025A70.405,70.405,0,0,1,286.343,310.247Zm7.866-10.831c5.217-1.221,10.158-2.56,14.729-4.021a41.17,41.17,0,0,0-8.765-5.776c-6.418,1.568-13.216,2.949-20.212,4.151A86.341,86.341,0,0,1,294.209,299.416Zm5.971-10.884c6.649-1.626,12.393-3.323,17.31-5.062a50.553,50.553,0,0,0-10.849-6.619c-7.5,1.908-15.552,3.561-23.884,4.972A109.573,109.573,0,0,1,300.18,288.532Zm6.5-12.732a172.146,172.146,0,0,0,17.524-5.419,61.037,61.037,0,0,0-11.609-6.467c-7.441,2.021-15.494,3.782-23.867,5.3A128.32,128.32,0,0,1,306.681,275.8Zm6.131-13a159.751,159.751,0,0,0,16.646-5.486,72.079,72.079,0,0,0-12.51-6.471c-7.326,2.04-15.295,3.815-23.622,5.344A142.887,142.887,0,0,1,312.812,262.8Zm17.854-5.982a77.382,77.382,0,0,0,11.759-5.925,31.354,31.354,0,0,0-7.012-6.41,140.213,140.213,0,0,1-16.778,5.885A68.148,68.148,0,0,1,330.666,256.821Zm4.905-13.556a66.489,66.489,0,0,0,10.881-5.928,36.667,36.667,0,0,0-8.153-6.688,131.221,131.221,0,0,1-15.784,5.759A75.308,75.308,0,0,1,335.571,243.265Zm2.854-13.829a60.8,60.8,0,0,0,11.01-6.313,40.759,40.759,0,0,0-8.963-6.9,119.767,119.767,0,0,1-16.322,6.334A88.273,88.273,0,0,1,338.425,229.436Zm11.8-6.922a26.158,26.158,0,0,0,5.555-5.763,20.722,20.722,0,0,0-4.784-6.981,54.436,54.436,0,0,1-9.486,5.938A41.6,41.6,0,0,1,350.22,222.514Zm.816-14.15a23.468,23.468,0,0,0,5.583-6.555,24.536,24.536,0,0,0-5.607-6.692,49.373,49.373,0,0,1-9.551,6.387A49.785,49.785,0,0,1,351.036,208.364Zm4.955-21.358a27.644,27.644,0,0,0-6.133-6.658,45.461,45.461,0,0,1-9.583,6.535,59.2,59.2,0,0,1,10.7,6.845A21,21,0,0,0,355.991,187.006Zm-2.246-13.374q-4.824-1.961-10.011-3.814a43.5,43.5,0,0,1-4.1,2.858,63.6,63.6,0,0,1,10.154,6.284A19.589,19.589,0,0,0,353.745,173.632Zm-.47-2.459a32.239,32.239,0,0,0-5.44-5.225,26.232,26.232,0,0,1-2.234,2.3C348.239,169.2,350.781,170.178,353.275,171.173Zm-2.5-13.573a34.713,34.713,0,0,0-6.38-5.529,29.223,29.223,0,0,1-6.919,6.361,67.637,67.637,0,0,1,10.16,6.075A14.875,14.875,0,0,0,350.777,157.6Zm-4.438-12.45a38.111,38.111,0,0,0-8.046-6.514,26.582,26.582,0,0,1-6.075,5.675,78.285,78.285,0,0,1,11.9,6.334A13.874,13.874,0,0,0,346.339,145.15ZM340.1,131a45.162,45.162,0,0,0-7.755-5.507,22.054,22.054,0,0,1-5.625,6.1,86.373,86.373,0,0,1,11.272,5.641A12.28,12.28,0,0,0,340.1,131Zm-8.656-6.024a95.344,95.344,0,0,0-11.811-5.438,47.333,47.333,0,0,1-10.274,6,165.607,165.607,0,0,1,16.24,5.583A21.708,21.708,0,0,0,331.444,124.974Zm-7.276-12.407a103.289,103.289,0,0,0-12.476-5.278,38.831,38.831,0,0,1-8.979,5.626c6,1.644,11.638,3.453,16.762,5.426A17.259,17.259,0,0,0,324.168,112.567Zm-8.86-12.174a111.886,111.886,0,0,0-11.763-4.681,28.649,28.649,0,0,1-7.74,5.685c5.558,1.427,10.817,2.995,15.659,4.7A13.55,13.55,0,0,0,315.308,100.393Zm-9.62-10.954a127.283,127.283,0,0,0-13.142-4.666,20.587,20.587,0,0,1-5.7,5.064c5.795,1.4,11.309,2.954,16.391,4.662A10.544,10.544,0,0,0,305.688,89.439Zm-12.1-10.583c0-.016,0-.031,0-.047-3.174-1.176-6.591-2.278-10.207-3.3A14.356,14.356,0,0,1,279,80.132c4.568,1.043,8.965,2.184,13.126,3.423A8.714,8.714,0,0,0,293.591,78.856Zm-10.215-7.2a6.692,6.692,0,0,0-.288-1.823c-3-1.041-6.219-2.008-9.584-2.911a7.455,7.455,0,0,1-2.823,4.353c4.21.911,8.276,1.912,12.151,3A6.664,6.664,0,0,0,283.376,71.658Zm-12.258-6.429c.457.116.924.228,1.376.346a4.508,4.508,0,0,0-.208-.934C271.9,64.836,271.509,65.031,271.118,65.229Zm1.089-2.895c.173-.086.347-.177.519-.262-.347-.122-.675-.247-1.031-.368C271.883,61.911,272.046,62.122,272.207,62.334Zm-12.6,1.389a22.229,22.229,0,0,1-7.482,4.2q3.7.553,7.354,1.194,3.6-2.04,7.123-3.9Q263.163,64.427,259.6,63.723Zm-1.225-.232c-5.523-1.057-11.212-1.96-16.9-2.709-3.548,1.878-8.732,3.283-14.428,4.289,7.443.59,15.187,1.435,22.885,2.536A26.281,26.281,0,0,0,258.378,63.491Zm-55.81-11.9c-3.965,0-8.091.1-12.3.288a51,51,0,0,0,11.983,1.419,53.673,53.673,0,0,0,12.368-1.351C210.472,51.713,206.417,51.586,202.568,51.586ZM175.623,52.88c-.241.521-.479,1.058-.719,1.585a40.159,40.159,0,0,0,6.778,2.041c1.621.357,3.3.655,4.984.913,5.688-.289,11.083-.433,15.953-.433s10.248.175,15.908.518c6.111-.9,11.233-2.291,13.741-4.012-4.911-.589-9.86-1.05-14.7-1.373-3.89,1.6-10.822,2.227-15.309,2.227-4.347,0-11.04-.732-15.034-2.323C183.389,52.233,179.506,52.519,175.623,52.88Zm-1.153,2.557c-.437.969-.876,1.93-1.307,2.92,3.038-.266,6.04-.492,8.983-.678A43.535,43.535,0,0,1,174.47,55.437Zm.3-5.646q-2.13.225-4.271.49a1.923,1.923,0,0,0-.073.3,2.522,2.522,0,0,0,.883,1.716q1.2-.128,2.386-.248C174.048,51.283,174.41,50.545,174.768,49.791ZM163.53,60.438c-5.75.665-11.513,1.474-17.113,2.433a30.583,30.583,0,0,0,8.805,4.227c4.2-.524,8.414-.982,12.585-1.367q.627-1.559,1.26-3.087A36.872,36.872,0,0,1,163.53,60.438ZM145.074,63.1c-4.551.8-8.965,1.711-13.164,2.719.329,1.549,1.534,3,3.426,4.361,5.691-1.078,11.6-2.009,17.561-2.791A25.293,25.293,0,0,1,145.074,63.1Zm-14.193,2.972c-3.425.843-6.689,1.755-9.735,2.742a6.486,6.486,0,0,0-.166,1.417,6.817,6.817,0,0,0,.728,2.953c3.9-1,7.994-1.914,12.229-2.74A8.1,8.1,0,0,1,130.881,66.071Zm-20.093,11.5a9.012,9.012,0,0,0,1.7,4.718c4.23-1.157,8.7-2.212,13.347-3.168a16.1,16.1,0,0,1-4.648-4.65C117.505,75.432,114.014,76.462,110.788,77.576Zm1.327,5.989a128.737,128.737,0,0,0-13.383,4.414,11.159,11.159,0,0,0,2.662,5.036c5.171-1.606,10.785-3.048,16.683-4.335A23.063,23.063,0,0,1,112.115,83.565ZM101.064,94.2a110.342,110.342,0,0,0-11.937,4.438,14.446,14.446,0,0,0,4.08,5.841c4.927-1.606,10.279-3.067,15.934-4.384A31.264,31.264,0,0,1,101.064,94.2Zm-8.11,11.445a101.76,101.76,0,0,0-12.647,5.009,18.549,18.549,0,0,0,4.912,5.877C90.4,114.682,96.1,113,102.168,111.489A41.675,41.675,0,0,1,92.954,105.648Zm-7.985,12.065A93.337,93.337,0,0,0,73,122.9a22.6,22.6,0,0,0,5.972,6.334,167.252,167.252,0,0,1,16.561-5.259A50.6,50.6,0,0,1,84.969,117.713Zm-12.862,5.679a43.717,43.717,0,0,0-7.87,5.388,12.7,12.7,0,0,0,2.188,6.294,85.686,85.686,0,0,1,11.487-5.423A23.409,23.409,0,0,1,72.107,123.392Zm-5.96,13.034a37.008,37.008,0,0,0-8.113,6.343,14.344,14.344,0,0,0,2.3,5.6A77.454,77.454,0,0,1,72.409,142.3,28.129,28.129,0,0,1,66.147,136.426Zm-6.068,13.323a33.727,33.727,0,0,0-6.476,5.434,13.15,13.15,0,0,0,.35,1.56c3.3-.953,6.7-1.869,10.23-2.731A26.87,26.87,0,0,1,60.079,149.749Zm-5.393,8.963a17.538,17.538,0,0,0,2.08,3.413A66.441,66.441,0,0,1,67.1,156.257c-.279-.195-.547-.392-.816-.589Q60.266,157.1,54.686,158.712Zm1.916,4.8a29.189,29.189,0,0,0-6.49,6.4,19.044,19.044,0,0,0,4.5,6.641,62.55,62.55,0,0,1,10.352-6.089A36.584,36.584,0,0,1,56.6,163.51Zm-2.031,14.379a26.858,26.858,0,0,0-6.182,6.528,21.807,21.807,0,0,0,5.085,6.851A58.341,58.341,0,0,1,64.3,184.681,47.578,47.578,0,0,1,54.571,177.889Zm-1.1,14.722a23.928,23.928,0,0,0-5.71,6.619,24.306,24.306,0,0,0,5.61,6.653,48.792,48.792,0,0,1,9.748-6.662A51.73,51.73,0,0,1,53.466,192.611Zm-4.891,21.561a26.889,26.889,0,0,0,5.575,5.891,40.566,40.566,0,0,1,8.878-6.643,56.806,56.806,0,0,1-9.58-6.171A20.136,20.136,0,0,0,48.575,214.172Zm1.932,13.611a29.125,29.125,0,0,0,6.533,6.494A35.417,35.417,0,0,1,65,227.857a62.791,62.791,0,0,1-10.688-6.416A17.391,17.391,0,0,0,50.507,227.783Zm3.556,14.025a34.98,34.98,0,0,0,7,6.069,30.341,30.341,0,0,1,6.8-6.147,68.384,68.384,0,0,1-10.609-6.072A15.55,15.55,0,0,0,54.063,241.808Zm4.659,13.762a39.149,39.149,0,0,0,7.633,5.99,23.26,23.26,0,0,1,3.96-4.24q.691-1.2,1.4-2.4a76.919,76.919,0,0,1-10.406-5.611A14.226,14.226,0,0,0,58.722,255.57Zm8.555,6.55c.077.047.151.094.229.14.294-.53.613-1.072.912-1.6A18.434,18.434,0,0,0,67.277,262.12Zm-2.2,4.645c.633-1.192,1.249-2.377,1.913-3.584l-.326-.194A13.146,13.146,0,0,0,65.082,266.765Zm.6,3.268a46.282,46.282,0,0,0,6.829,4.789,21.457,21.457,0,0,1,5.543-6.213,93.385,93.385,0,0,1-9.264-4.4Q67.174,267.153,65.683,270.033Zm7.749,5.318a95.454,95.454,0,0,0,12.506,5.771,48.531,48.531,0,0,1,10.414-6.281,170.1,170.1,0,0,1-17.191-5.775A20.983,20.983,0,0,0,73.432,275.351Zm8.153,12.594a108.982,108.982,0,0,0,12.836,5.3,39.446,39.446,0,0,1,8.428-5.523c-5.969-1.625-11.582-3.412-16.7-5.361A17.866,17.866,0,0,0,81.585,287.945Zm9.231,12.105a118.453,118.453,0,0,0,11.759,4.52,35.057,35.057,0,0,1,8.134-5.4c-5.678-1.423-11.074-2.986-16.044-4.7A14.322,14.322,0,0,0,90.816,300.05Zm8.9,10.745a123.633,123.633,0,0,0,12.09,4.332,25.615,25.615,0,0,1,6.518-5.01c-5.442-1.307-10.639-2.747-15.465-4.324A11.515,11.515,0,0,0,99.72,310.8Zm13.191,4.653c4.513,1.345,9.33,2.574,14.351,3.692a43.136,43.136,0,0,1,6.293-3.453c-.083-.8-.17-1.6-.248-2.409-4.6-.852-9.125-1.788-13.5-2.81A26.867,26.867,0,0,0,112.911,315.448Zm9.728,9.655c3.953,1.114,8.133,2.136,12.458,3.07-.305-2.131-.6-4.274-.869-6.47-2.316-.452-4.591-.935-6.84-1.434A15.636,15.636,0,0,0,122.639,325.1Zm-.459.967a6.456,6.456,0,0,0-.481,2.387,6.234,6.234,0,0,0,.219,1.532c4.283,1.441,9.012,2.757,14.062,3.939-.251-1.526-.5-3.062-.726-4.626C130.714,328.327,126.327,327.25,122.18,326.07Zm14.084-5.081c4.888.922,9.888,1.745,14.923,2.468a98.642,98.642,0,0,1,19.313-5.168c-10.15-.9-20.712-2.21-31-3.924-1.329.478-2.608.966-3.809,1.471C135.87,317.57,136.06,319.291,136.264,320.989Zm.125,1.119c.274,2.216.582,4.374.9,6.522q1.869.387,3.766.753a29.282,29.282,0,0,1,8.211-5.114C144.923,323.626,140.619,322.9,136.389,322.108Zm2.678,12.523q3.741.817,7.659,1.541a19.384,19.384,0,0,1,5.636-3.764c-3.714-.567-7.4-1.195-11.02-1.884A7.763,7.763,0,0,0,139.067,334.631Zm6.877,5.462a3.362,3.362,0,0,0,.1.759c3.854.842,7.9,1.606,12.091,2.28a8.882,8.882,0,0,1,3.934-3.533c-5.058-.651-10.079-1.413-14.953-2.3A4.434,4.434,0,0,0,145.944,340.093Zm26.5,4.93c1.854-1.362,5.007-2.559,9.091-3.487-5.8-.408-11.737-.978-17.647-1.7-2.41,1.108-3.985,2.289-4.658,3.469C163.513,343.969,167.935,344.547,172.44,345.023Zm-.818,2.793c0,.631.531,1.313,1.5,2q5.151.613,10.585,1.017a1.536,1.536,0,0,1-.028-.165c0-1.283,1.513-2.461,4.027-3.392-4.961-.268-9.977-.667-14.955-1.189A2.464,2.464,0,0,0,171.622,347.816ZM175.5,351.1a44.591,44.591,0,0,0,10.04,2.7c.623.05,1.244.1,1.879.145a7.726,7.726,0,0,1-3.257-2.053Q179.78,351.57,175.5,351.1Zm16.93,3.131q4.7.21,9.744.218t9.744-.218a19.665,19.665,0,0,0,6.574-2.191c-5.3.345-10.686.53-16.078.53l-.195,0-.045,0c-.025,0-.048,0-.073,0-5.46-.007-10.923-.2-16.295-.562A19.4,19.4,0,0,0,192.434,354.233Zm24.5-.286c.634-.044,1.255-.1,1.878-.145a45.178,45.178,0,0,0,9.886-2.634c-2.8.3-5.655.552-8.536.759A7.814,7.814,0,0,1,216.933,353.947Zm14.236-4.089c1.009-.7,1.565-1.4,1.565-2.042a2.422,2.422,0,0,0-1.087-1.691c-4.974.516-9.986.908-14.945,1.169,2.482.929,3.975,2.1,3.975,3.372a1.557,1.557,0,0,1-.033.191Q226.037,350.466,231.169,349.858Zm13.984-6.522c-.654-1.178-2.2-2.359-4.591-3.467-5.9.724-11.836,1.29-17.629,1.693,4.061.931,7.194,2.129,9.026,3.492C236.456,344.58,240.871,344,245.153,343.336Zm1.091-.169c4.177-.67,8.213-1.43,12.056-2.27a3.379,3.379,0,0,0,.112-.8,4.392,4.392,0,0,0-1.127-2.74c-4.864.88-9.876,1.638-14.924,2.285A8.739,8.739,0,0,1,246.244,343.167Zm19.049-8.5a7.1,7.1,0,0,0-1.617-3.4c-3.5.6-7.065,1.152-10.658,1.644a17.7,17.7,0,0,1,4.646,3.286Q261.563,335.487,265.293,334.67Zm1.038-.229a160.306,160.306,0,0,0,16.1-4.414,5.64,5.64,0,0,0,.1-2.786c-5.539,1.469-11.517,2.744-17.715,3.841A7.847,7.847,0,0,1,266.331,334.441Zm15.913-8.206a12.382,12.382,0,0,0-4.092-5.1c-7.022,1.446-14.42,2.664-21.921,3.661a25.226,25.226,0,0,1,7.818,5.353c3.3-.578,6.564-1.208,9.756-1.9C276.833,327.6,279.637,326.922,282.244,326.235Zm-3.853-6.223c.546-.113,1.1-.219,1.642-.335,4.577-.984,8.694-2,12.4-3.052a21.356,21.356,0,0,0-6.267-5.259c-5.657,1.242-11.579,2.334-17.625,3.287A43.821,43.821,0,0,1,278.391,320.012Zm15.107-3.7a116.64,116.64,0,0,0,11.4-3.9,9.4,9.4,0,0,0-2.257-5.365c-4.681,1.466-9.729,2.794-15.025,3.989A20.574,20.574,0,0,1,293.5,316.314Zm9.533-10.472a111.429,111.429,0,0,0,10.526-3.873,14.826,14.826,0,0,0-3.8-5.775c-4.431,1.429-9.2,2.738-14.2,3.93A28.2,28.2,0,0,1,303.031,305.842Zm6.958-10.789A106.286,106.286,0,0,0,322.836,290a18.136,18.136,0,0,0-4.435-5.766c-5.15,1.855-10.812,3.535-16.833,5.045A40.3,40.3,0,0,1,309.989,295.053Zm8.541-11.964a90.985,90.985,0,0,0,12.422-5.468,21.736,21.736,0,0,0-5.78-6.509,167.144,167.144,0,0,1-17.067,5.364A49.361,49.361,0,0,1,318.53,283.089Zm6.884-13.174a85.045,85.045,0,0,0,11.681-5.471,27.12,27.12,0,0,0-6.642-6.416,155.08,155.08,0,0,1-16.18,5.426A57.233,57.233,0,0,1,325.414,269.915Zm12.63-6.03a38.061,38.061,0,0,0,7.577-5.8,14.584,14.584,0,0,0-2.575-6.342,76.911,76.911,0,0,1-11.393,5.793A27.263,27.263,0,0,1,338.044,263.885Zm5.29-13.581a33.917,33.917,0,0,0,6.964-5.917,15.964,15.964,0,0,0-3.169-6.235,65.911,65.911,0,0,1-10.545,5.812A31.287,31.287,0,0,1,343.334,250.3Zm4.006-13.6a28.368,28.368,0,0,0,6.525-6.35,17.874,17.874,0,0,0-3.714-6.444,60.252,60.252,0,0,1-10.657,6.2A36.442,36.442,0,0,1,347.34,236.7Zm9.84-33.735a25.152,25.152,0,0,1-5.394,6.146,22.459,22.459,0,0,1,4.667,6.559,13.488,13.488,0,0,0,.727-12.705Zm-.54-14.837a22.572,22.572,0,0,1-4.858,6.294,26.408,26.408,0,0,1,5.39,6.272,13.745,13.745,0,0,0,1.259-5.678A14.544,14.544,0,0,0,356.64,188.127Zm-1.269-13.836c-.213-.088-.434-.174-.647-.262a20.415,20.415,0,0,1-4.109,5.6,29.654,29.654,0,0,1,5.84,6.2,13.626,13.626,0,0,0,.782-4.5A14.7,14.7,0,0,0,355.371,174.291Zm-3.716-15.62a16.256,16.256,0,0,1-3.171,6.472,32.308,32.308,0,0,1,6.165,6.107,12.623,12.623,0,0,0,.473-3.372A14.9,14.9,0,0,0,351.655,158.671Zm-4.439-12.492a15.16,15.16,0,0,1-2.234,5.048,37.509,37.509,0,0,1,5.928,5c.008-.177.027-.351.027-.529A15.084,15.084,0,0,0,347.216,146.179Zm-6.109-14.219a13.512,13.512,0,0,1-2.22,5.832,41.078,41.078,0,0,1,7.592,6c.01-.2.034-.4.034-.6C346.513,139.156,344.57,135.413,341.107,131.96Zm-8.268-7.374a48.343,48.343,0,0,1,7.272,5.056c-.271-3.761-2.367-7.249-5.924-10.458A12.439,12.439,0,0,1,332.839,124.586Zm.266-6.329a48.422,48.422,0,0,0-8-5.2,17.868,17.868,0,0,1-4.525,5.714,95.133,95.133,0,0,1,11.318,5.275A11.444,11.444,0,0,0,333.143,119C333.143,118.748,333.121,118.5,333.105,118.257Zm-7.6-6.138a52.163,52.163,0,0,1,7.419,4.707c-.692-3.546-3.063-6.829-6.751-9.848.036.366.111.726.111,1.1A11.364,11.364,0,0,1,325.508,112.119Zm-8.664-14.571a10.275,10.275,0,0,1-.281,2.309,59.324,59.324,0,0,1,8,4.636c-1.175-3.326-3.953-6.391-7.977-9.2A10.464,10.464,0,0,1,316.844,97.548Zm-4.311,8.928a103.47,103.47,0,0,1,12.049,5.154,10.35,10.35,0,0,0,.652-3.554,10.542,10.542,0,0,0-.208-2,54.574,54.574,0,0,0-8.77-5.228A14.337,14.337,0,0,1,312.533,106.476ZM315.2,94.34a63.821,63.821,0,0,0-8.51-4.45,11.48,11.48,0,0,1-2.413,4.962A112.145,112.145,0,0,1,315.6,99.4a9.311,9.311,0,0,0,.194-1.847A9.786,9.786,0,0,0,315.2,94.34Zm-8.923-9.55a9.972,9.972,0,0,1,.6,3.272c0,.255-.056.5-.076.75a68.384,68.384,0,0,1,7.716,3.955C312.992,89.885,310.166,87.222,306.274,84.79Zm-1.477-.866a72.273,72.273,0,0,0-10.186-4.736,9.621,9.621,0,0,1-1.429,4.685,127.283,127.283,0,0,1,12.6,4.512c0-.108.03-.214.03-.323A9.423,9.423,0,0,0,304.8,83.924ZM293.36,74.14a9.91,9.91,0,0,1,1.209,3.951,79.182,79.182,0,0,1,9.233,4.144C301.722,79.263,298.1,76.565,293.36,74.14Zm-9.07-3.868a7.421,7.421,0,0,1-.436,4.287q5.1,1.459,9.628,3.133a9.851,9.851,0,0,0-1.96-4.458C289.306,72.193,286.882,71.206,284.29,70.272Zm-1.965-4.121a10.154,10.154,0,0,1,1.629,2.914q3.133,1.115,5.941,2.333A31.811,31.811,0,0,0,282.325,66.151Zm-6.862-3.073c-.742.358-1.483.716-2.232,1.087a5.471,5.471,0,0,1,.352,1.706c3.16.85,6.182,1.764,9.036,2.739a12.245,12.245,0,0,0-3.058-3.807Q277.635,63.922,275.463,63.078Zm-9.474-5.393a25.04,25.04,0,0,1,3.746,2.279c1.486.47,2.942.951,4.335,1.456l.267-.128A60.782,60.782,0,0,0,265.989,57.685Zm-5.127-1.015a6.08,6.08,0,0,1,.476.928c1.523.381,3.01.782,4.473,1.2A45.968,45.968,0,0,0,260.862,56.67Zm-.332,1.81c-4.436-1.094-9.265-2.084-14.3-2.954-.2,1.661-1.385,3.114-3.28,4.378,5.513.749,11.014,1.648,16.356,2.69a4.684,4.684,0,0,0,1.366-3.129A3.879,3.879,0,0,0,260.53,58.48Zm-15.037-5.972a4.774,4.774,0,0,1,.729,1.935c4.72.813,9.353,1.76,13.78,2.83a6.837,6.837,0,0,0-.941-1.236A114.354,114.354,0,0,0,245.493,52.508Zm-6.049-4.464a17.8,17.8,0,0,1,4.879,3.064c3.9.707,7.706,1.515,11.335,2.419C251.827,51.361,246.088,49.514,239.444,48.044Zm-9.292-1.73a9.441,9.441,0,0,1,4.366,3.236c2.583.355,5.16.755,7.711,1.192a34.152,34.152,0,0,0-9.635-4.031Q231.382,46.506,230.152,46.314Zm-5.455-.761c-5.287-.657-10.667-1.1-15.775-1.31,4.7.616,9.468,1.845,11.023,3.729,4.229.34,8.594.8,12.975,1.369C231.5,48,228.638,46.664,224.7,45.553Zm-33.415-2.167c4-.227,7.791-.336,11.147-.336,3.372,0,7.17.135,11.171.4a97.651,97.651,0,0,0-11.269-.653h-.068C198.814,42.8,195.018,43.007,191.282,43.386Zm-13.544,5.053q2.1-.2,4.165-.356c.622-.049,1.243-.1,1.859-.144l.5-.036c1.282-1.883,5.86-3.046,10.546-3.639-5.073.2-10.378.6-15.577,1.191C178.734,46.443,178.233,47.425,177.738,48.439Zm-.527,1.107c-.362.753-.724,1.509-1.084,2.276,3.143-.287,6.251-.53,9.276-.719a2.751,2.751,0,0,1-1.515-2.121C181.7,49.14,179.469,49.328,177.211,49.546Zm-.7-3.377c-2.609.851-4.55,1.849-5.469,2.973q2.13-.249,4.251-.462C175.7,47.838,176.106,46.994,176.514,46.169Zm-14.861,4.249c2.655-.412,5.34-.784,8.032-1.113.583-1.2,1.975-2.241,3.914-3.133q-1.44.206-2.852.431A29.991,29.991,0,0,0,161.653,50.418Zm-13.3,2.524c3.635-.836,7.452-1.577,11.369-2.22A15.15,15.15,0,0,1,164.2,47.8C157.656,49.156,152.046,50.879,148.354,52.942Zm-4.131,3.638c4.454-.984,9.124-1.838,13.878-2.57a4.413,4.413,0,0,1,.585-1.939c-.475.087-.954.17-1.424.261a107.54,107.54,0,0,0-12.118,2.989A6.132,6.132,0,0,0,144.223,56.58Zm-.537,1.926a4.928,4.928,0,0,0,1.646,3.417c5.408-.945,10.979-1.749,16.558-2.412-2.06-1.308-3.406-2.794-3.732-4.467-4.992.781-9.826,1.693-14.386,2.733A3.648,3.648,0,0,0,143.686,58.506Zm-.272-2.612a43.841,43.841,0,0,0-5.145,2.123q2.292-.6,4.68-1.148A5.7,5.7,0,0,1,143.414,55.894Zm-14.972,5.137q2.9-1.05,6.1-1.985a24.268,24.268,0,0,1,3.912-2.285A55.937,55.937,0,0,0,128.442,61.031Zm-6.877,6.506c2.9-.925,5.975-1.782,9.19-2.576l0-.015a6.2,6.2,0,0,1,1.822-4.167,84.006,84.006,0,0,0-8.077,2.995A11.033,11.033,0,0,0,121.565,67.537Zm-7.419,2.688c1.931-.8,4-1.56,6.171-2.282a9.46,9.46,0,0,1,1.6-2.972A29.887,29.887,0,0,0,114.146,70.225Zm-3.3,6.189q4.607-1.587,9.809-2.957a7.844,7.844,0,0,1-.725-3.227,7.565,7.565,0,0,1,.105-1.045c-2.667.9-5.171,1.845-7.438,2.858A9.029,9.029,0,0,0,110.844,76.414Zm-10.465,4.358a77.717,77.717,0,0,1,9.374-3.988,9.439,9.439,0,0,1,1.075-3.9C106.051,75.213,102.407,77.834,100.379,80.772Zm-1.841,5.474c0,.208.025.411.039.615a128,128,0,0,1,12.839-4.274,9.988,9.988,0,0,1-1.632-4.652,71.49,71.49,0,0,0-10.4,4.564A8.953,8.953,0,0,0,98.538,86.246Zm-8.786,4.831a67.084,67.084,0,0,1,7.837-3.814A7.441,7.441,0,0,1,98,83.269C94.072,85.619,91.237,88.222,89.752,91.077Zm-1.188,4.512a9.183,9.183,0,0,0,.257,2.077A111.939,111.939,0,0,1,100.3,93.359a12.067,12.067,0,0,1-2.557-4.966,62.5,62.5,0,0,0-8.668,4.3A9.362,9.362,0,0,0,88.564,95.589Zm-8.815,6.988A57.794,57.794,0,0,1,87.857,98.1a9.531,9.531,0,0,1-.139-4.521C83.663,96.286,80.888,99.282,79.749,102.577Zm-.628,3.37a10.312,10.312,0,0,0,.757,3.794,103.026,103.026,0,0,1,12.213-4.894,15.176,15.176,0,0,1-3.929-5.771,52.592,52.592,0,0,0-8.846,5.058A10.15,10.15,0,0,0,79.121,105.947Zm-7.727,8.845a50.853,50.853,0,0,1,7.529-4.572,11.433,11.433,0,0,1-.854-4.273c0-.319.069-.625.1-.938C73.827,108.457,71.937,111.809,71.394,114.792Zm-.182,1.932a11.741,11.741,0,0,0,1.3,5.289,94.441,94.441,0,0,1,11.54-5.056,18.973,18.973,0,0,1-4.692-5.824,46.989,46.989,0,0,0-8.132,5.074C71.222,116.38,71.212,116.554,71.212,116.724Zm-6.986,10.7a47.048,47.048,0,0,1,7.383-4.921,12.6,12.6,0,0,1-1.43-5.419C65.967,120.78,64.42,124.334,64.226,127.428Zm-6.383,13.258c0,.246.024.487.038.73a39.936,39.936,0,0,1,7.681-5.826,13.814,13.814,0,0,1-2.3-5.905C59.186,133.642,57.843,137.427,57.843,140.686Zm-4.424,12.433c0,.233.024.461.037.692a36.421,36.421,0,0,1,6.036-4.9,15.616,15.616,0,0,1-2.327-5.151A14.538,14.538,0,0,0,53.419,153.119ZM51.9,157.335c.342-.1.7-.2,1.044-.3-.081-.273-.148-.548-.212-.824C52.432,156.588,52.157,156.963,51.9,157.335Zm-2.667,7.928a12.908,12.908,0,0,0,.478,3.414,31.2,31.2,0,0,1,6.246-5.972A18.609,18.609,0,0,1,53.689,159c-1.11.325-2.214.653-3.3.989A12.871,12.871,0,0,0,49.234,165.263ZM47.92,183.219a28.668,28.668,0,0,1,5.9-6.051,20.727,20.727,0,0,1-4.4-6.207,14.444,14.444,0,0,0-2.3,7.652A13.957,13.957,0,0,0,47.92,183.219ZM47.2,198.085a25.542,25.542,0,0,1,5.5-6.178,23.524,23.524,0,0,1-4.941-6.422,13.683,13.683,0,0,0-.555,12.6Zm.7,14.976a21.646,21.646,0,0,1,4.752-6.488,26.255,26.255,0,0,1-5.441-6.266,13.459,13.459,0,0,0-1.283,5.658A14.205,14.205,0,0,0,47.9,213.061Zm1.882,13.594a18.773,18.773,0,0,1,3.7-5.869,29.129,29.129,0,0,1-5.313-5.448,13.18,13.18,0,0,0-.577,3.819A14.47,14.47,0,0,0,49.779,226.655Zm3.459,14.137A16.861,16.861,0,0,1,56.4,235.04a31.7,31.7,0,0,1-6.235-6,12.617,12.617,0,0,0-.28,2.639A14.953,14.953,0,0,0,53.238,240.792Zm4.58,13.791a15.447,15.447,0,0,1,2.615-5.863,37.552,37.552,0,0,1-6.617-5.624,12.141,12.141,0,0,0-.109,1.606C53.707,248.212,55.167,251.505,57.818,254.583Zm7.955,7.849a42.09,42.09,0,0,1-7.156-5.5c0,.1-.009.2-.009.293,0,3.935,1.829,7.595,5.118,10.978A13.528,13.528,0,0,1,65.773,262.432Zm6.263,13.331a48.4,48.4,0,0,1-6.844-4.769c-.1.191-.184.376-.281.566.606,3.367,2.675,6.508,5.932,9.421A12.36,12.36,0,0,1,72.036,275.763Zm-.094,6.16a50.343,50.343,0,0,0,8.7,5.54,18.292,18.292,0,0,1,4.347-5.552A94.918,94.918,0,0,1,72.951,276.3a11.27,11.27,0,0,0-1.057,4.708C71.894,281.314,71.917,281.619,71.942,281.923Zm8.257,6.5a54.11,54.11,0,0,1-8.043-5.016c.79,3.636,3.372,6.992,7.329,10.069-.026-.313-.095-.619-.095-.937A11.332,11.332,0,0,1,80.2,288.42Zm8.984,14.749a10.42,10.42,0,0,1,.356-2.559,62.674,62.674,0,0,1-8.487-4.736c1.163,3.446,4.09,6.61,8.375,9.491A10.392,10.392,0,0,1,89.183,303.169Zm4.374-9.089a108.246,108.246,0,0,1-12.4-5.179,9.229,9.229,0,0,0-.525,5.427,58.3,58.3,0,0,0,9.219,5.272A15.1,15.1,0,0,1,93.557,294.08Zm5.156,21.1a8.822,8.822,0,0,1-.356-2.338,8.7,8.7,0,0,1,.149-1.452,68.9,68.9,0,0,1-7.036-3.548C92.837,310.477,95.324,312.923,98.713,315.18Zm3.038-9.756A117.677,117.677,0,0,1,90.5,301.056a9.218,9.218,0,0,0-.268,2.113,9.689,9.689,0,0,0,.566,3.1,64.427,64.427,0,0,0,7.955,4.092A12.3,12.3,0,0,1,101.751,305.424ZM100.1,316.068a64.377,64.377,0,0,0,9.089,4.485,9.152,9.152,0,0,1,1.9-4.539c-4.161-1.289-8.042-2.685-11.572-4.181a7.76,7.76,0,0,0-.108,1.009A8.1,8.1,0,0,0,100.1,316.068Zm9.961,8.954a8.149,8.149,0,0,1-.923-3.384,71.442,71.442,0,0,1-8.036-3.8C102.859,320.419,105.95,322.819,110.057,325.022Zm.139-4.065c3.5,1.382,7.33,2.665,11.43,3.849a15.43,15.43,0,0,1,4.443-4.831c-4.87-1.107-9.546-2.323-13.938-3.653A8.222,8.222,0,0,0,110.2,320.957Zm10.556,8.644a7.075,7.075,0,0,1-.106-1.144,7.342,7.342,0,0,1,.531-2.685c-3.9-1.136-7.572-2.363-10.942-3.686a8.087,8.087,0,0,0,1.642,3.88A81.448,81.448,0,0,0,120.752,329.6Zm1.75,3.888a9.685,9.685,0,0,1-1.437-2.666c-2.664-.911-5.149-1.877-7.436-2.893A34.233,34.233,0,0,0,122.5,333.489Zm2.265.992a104.014,104.014,0,0,0,12,4.082c-.209-1.147-.4-2.337-.593-3.507-4.913-1.135-9.548-2.4-13.792-3.8A11.257,11.257,0,0,0,124.767,334.481Zm12.616,7.258c-.133-.679-.28-1.333-.409-2.021-3.4-.932-6.576-1.94-9.493-3.02A47.788,47.788,0,0,0,137.383,341.739Zm2.781-11.435c-.915-.179-1.818-.367-2.723-.553.216,1.447.453,2.853.688,4.267A8.675,8.675,0,0,1,140.164,330.3Zm-1.113,8.871c-.021-.036-.041-.073-.061-.11.006.034.014.065.02.1Zm4.451,4.693a19.176,19.176,0,0,1-3.565-3.374c-.234-.059-.462-.121-.7-.181.149.775.309,1.526.463,2.29C140.924,343.036,142.183,343.46,143.5,343.868Zm4.548,1.305a8.474,8.474,0,0,1-2.837-3.436q-1.776-.392-3.5-.806a25.363,25.363,0,0,0,5.132,3.914Q147.445,345.01,148.05,345.173ZM150.9,347c-.1-.056-.216-.11-.317-.167l-.051-.012C150.652,346.879,150.771,346.94,150.9,347Zm.349-1.012c2.6.627,5.329,1.208,8.168,1.742a4.709,4.709,0,0,1-1.642-3.186,3.21,3.21,0,0,1,.081-.418c-3.9-.624-7.689-1.327-11.336-2.105A12.1,12.1,0,0,0,151.245,345.987ZM155.682,348a66.9,66.9,0,0,0,7.279,2.275,19.841,19.841,0,0,1-2.019-1.257C159.153,348.693,157.394,348.355,155.682,348Zm14.216,5.112c-.633-.2-1.271-.4-1.862-.615-2.323-.462-4.51-.971-6.544-1.521C164.163,351.775,166.985,352.476,169.9,353.108Zm7.47-.156a19.032,19.032,0,0,1-4.695-2.176q-4.589-.56-8.959-1.286a35.964,35.964,0,0,0,4.639,2Q172.535,352.322,177.368,352.952Zm49.424,1.073q-3.723.474-7.726.8a110.941,110.941,0,0,1-33.777,0q-4-.329-7.726-.8a117.614,117.614,0,0,0,19.912,2.294c1.563.044,3.126.086,4.7.086s3.14-.042,4.7-.086A117.59,117.59,0,0,0,226.792,354.025Zm.2-1.073q4.826-.624,9.014-1.463a36.349,36.349,0,0,0,4.475-1.913q-4.325.7-8.872,1.256A19.407,19.407,0,0,1,226.988,352.952Zm15.876-1.98q-3.052.825-6.545,1.521c-.591.212-1.228.413-1.862.615C237.371,352.476,240.193,351.775,242.864,350.972Zm5.465-2.843q-2.46.51-5.023.967a19.978,19.978,0,0,1-1.912,1.176A68.61,68.61,0,0,0,248.329,348.129Zm4.622-2.058a12.521,12.521,0,0,0,4.846-3.98c-3.63.772-7.406,1.47-11.283,2.089a3.022,3.022,0,0,1,.071.363,4.752,4.752,0,0,1-1.691,3.238C247.691,347.256,250.388,346.687,252.951,346.071Zm.6.883-.013,0-.08.042Zm9.009-5.945q-1.7.408-3.449.794a8.639,8.639,0,0,1-2.889,3.436c.39-.1.771-.211,1.155-.317A25.812,25.812,0,0,0,262.561,341.009Zm14.208-4.212a123.316,123.316,0,0,1-12.413,3.776,19.5,19.5,0,0,1-3.59,3.361C267.506,341.848,272.977,339.427,276.769,336.8Zm5.183-5.477c-4.745,1.562-9.982,2.963-15.543,4.2a7.453,7.453,0,0,1-1.131,3.707,109.584,109.584,0,0,0,14.281-4.7A11.382,11.382,0,0,0,281.952,331.32Zm8.69-3.3c-2.264,1.006-4.729,1.959-7.361,2.86a9.782,9.782,0,0,1-1.436,2.646A34.4,34.4,0,0,0,290.642,328.018Zm3.079-4.247c-3.153,1.15-6.578,2.209-10.186,3.19a6.48,6.48,0,0,1,.067,2.674,81.354,81.354,0,0,0,8.857-3.63A9.366,9.366,0,0,0,293.721,323.771Zm.477-2.424a7.414,7.414,0,0,0-1.146-3.824c-4.285,1.228-8.851,2.343-13.61,3.349a12.587,12.587,0,0,1,3.818,5.089c4.1-1.108,7.69-2.25,10.813-3.412A6.486,6.486,0,0,0,294.2,321.347Zm6.082-.28c-1.655.775-3.444,1.511-5.309,2.221a8.793,8.793,0,0,1-.678,1.763A33.967,33.967,0,0,0,300.28,321.067Zm4.594-7.543c-3.307,1.331-6.923,2.565-10.79,3.7a8.332,8.332,0,0,1,1.167,4.121,7.526,7.526,0,0,1-.078.779,67.014,67.014,0,0,0,7.359-3.319A9.666,9.666,0,0,0,304.874,313.524Zm8.084-3.833a66.511,66.511,0,0,1-6.983,3.381,9.549,9.549,0,0,1-1.346,4.541C309.116,314.9,311.66,312.2,312.958,309.691Zm1.163-4.568a9.913,9.913,0,0,0-.259-2.181c-3.111,1.344-6.512,2.6-10.148,3.769a10.4,10.4,0,0,1,2.2,5.29,60.454,60.454,0,0,0,7.7-3.848A9.469,9.469,0,0,0,314.121,305.123Zm9.231-7.179a60.64,60.64,0,0,1-8.54,4.582,10.625,10.625,0,0,1,.361,2.6,10.449,10.449,0,0,1-.246,2.2C319.9,304.075,322.363,300.858,323.352,297.944Zm.561-3.3a10.866,10.866,0,0,0-.7-3.7,106.118,106.118,0,0,1-12.417,4.91,15.689,15.689,0,0,1,3.722,5.685,55.829,55.829,0,0,0,9.23-5.1A10.078,10.078,0,0,0,323.913,294.645Zm8.288-8.993a52.426,52.426,0,0,1-8.041,4.833,11.632,11.632,0,0,1,.806,4.16c0,.333-.07.653-.1.98C329.461,292.129,331.533,288.709,332.2,285.652Zm.261-2.365a11.538,11.538,0,0,0-1.062-4.749,92.594,92.594,0,0,1-11.975,5.323,18.933,18.933,0,0,1,4.314,5.687,48.847,48.847,0,0,0,8.683-5.379C332.446,283.871,332.462,283.576,332.462,283.287Zm7.123-10.247a45.591,45.591,0,0,1-7.25,4.973,12.7,12.7,0,0,1,1.178,5.244C337.063,280.145,339.213,276.743,339.585,273.04Zm.033-1.414a12.614,12.614,0,0,0-1.932-6.319,84.537,84.537,0,0,1-11.347,5.353,22.184,22.184,0,0,1,5.546,6.434A42.251,42.251,0,0,0,339.618,271.626Zm6.13-11.867c0-.11-.013-.217-.016-.326a40.574,40.574,0,0,1-7.125,5.321,13.948,13.948,0,0,1,2.027,5.891C344.481,266.735,345.748,262.991,345.748,259.759Zm4.9-12.486a12.5,12.5,0,0,0-.113-1.586,36.143,36.143,0,0,1-6.591,5.464,16.025,16.025,0,0,1,2.594,5.937A14.819,14.819,0,0,0,350.649,247.273Zm.48-3.91a14.717,14.717,0,0,0,3.34-9.039,13.487,13.487,0,0,0-.268-2.646,30.447,30.447,0,0,1-6.189,5.848A17.43,17.43,0,0,1,351.129,243.363Z"/></svg>
