<svg xmlns="http://www.w3.org/2000/svg" viewBox="0 0 409.816 400"><title>nomios_illustrations3</title><path d="M386.893,27.563,370.5,20.26l.413-.927,16.395,7.3ZM384.7,29.228l-16.4-7.3-.413.927,16.4,7.3ZM382.1,31.82l-16.4-7.3-.413.926,16.4,7.3Zm-2.605,2.592L363.1,27.11l-.413.927,16.395,7.3ZM376.886,37l-16.4-7.3-.413.927,16.4,7.3ZM374.28,39.6l-16.395-7.3-.414.927,16.4,7.3Zm-2.6,2.591-16.4-7.3-.413.927,16.4,7.3ZM23.839,5.421l-5.3,17.149.969.3,5.3-17.149ZM22.4,25.147,27.694,8l-.97-.3-5.3,17.149Zm2.883,2.278,5.3-17.148-.969-.3-5.3,17.148ZM28.164,29.7l5.3-17.148-.969-.3L27.2,29.4Zm2.885,2.279,5.3-17.15-.97-.3L30.08,31.68Zm2.883,2.277,5.3-17.148-.97-.3-5.3,17.149Zm2.884,2.278,5.3-17.15-.969-.3-5.3,17.149ZM379.3,68.779l.252-.034a416.035,416.035,0,0,1-22.383,133.676,434.235,434.235,0,0,1-32.434,72.7l.836.584a435.309,435.309,0,0,0,32.557-72.953A417,417,0,0,0,380.562,68.181V67.95l-.174-.151c-.185-.161-.183-.163-1.225-.025a176.463,176.463,0,0,1-48.755-.556l-.882.882A177.181,177.181,0,0,0,379.3,68.779ZM304.967,307.006c-23.309,34.169-45.255,55.772-59.563,67.878-18.1,15.317-34.235,24.1-44.264,24.1-21.066,0-65.177-32.04-105.437-91.417A428.625,428.625,0,0,1,22.328,68.711c.212.018.478.041.763.068a195.379,195.379,0,0,0,44.394-1.123l-1.117-.868a194.656,194.656,0,0,1-43.185.981c-1.515-.14-1.512-.139-1.7.037l-.166.152v.224a429.631,429.631,0,0,0,73.55,239.956C135.319,367.8,179.814,400,201.14,400c20.457,0,65.2-34.571,104.664-92.422q7.706-11.295,14.67-23.065l-.834-.582Q312.668,295.694,304.967,307.006ZM28.4,69.693c-1.472-.133-1.47-.136-1.66.04l-.166.152v.224A417,417,0,0,0,97.967,303.016c39.268,57.916,82.46,89.167,103.163,89.167,19.859,0,63.293-33.556,101.6-89.711q7.02-10.29,13.4-20.989l-.834-.582q-6.394,10.692-13.407,21c-22.622,33.162-43.922,54.129-57.808,65.878-17.567,14.865-33.222,23.39-42.953,23.39-20.443,0-63.252-31.095-102.324-88.721A416,416,0,0,1,27.592,70.639l.72.064a189.925,189.925,0,0,0,41.9-.925l-1.121-.872A189.219,189.219,0,0,1,28.4,69.693Zm345.642,1.012c.083-.012.16-.022.23-.03A403.745,403.745,0,0,1,352.552,200.4a421.392,421.392,0,0,1-32.128,71.715l.835.583a422.515,422.515,0,0,0,32.253-71.971A404.747,404.747,0,0,0,375.29,70.109v-.231l-.173-.151c-.186-.165-.185-.164-1.205-.028a171.732,171.732,0,0,1-45.7-.283l-.882.882A172.74,172.74,0,0,0,374.046,70.705ZM368.8,72.63l.2-.027a391.512,391.512,0,0,1-21.064,125.769A408.642,408.642,0,0,1,316.1,269.1l.834.582A409.592,409.592,0,0,0,348.9,198.7,392.5,392.5,0,0,0,370.017,72.037v-.23l-.173-.152c-.184-.162-.182-.162-1.178-.031a167.359,167.359,0,0,1-42.62-.044l-.9.9A168,168,0,0,0,368.8,72.63ZM33.63,71.618c-1.431-.13-1.432-.132-1.621.043l-.167.152v.224A404.4,404.4,0,0,0,101.071,297.9c38.081,56.165,79.97,86.471,100.049,86.471,19.262,0,61.384-32.541,98.533-87q6.334-9.286,12.136-18.916l-.833-.582q-5.811,9.625-12.141,18.927c-21.936,32.156-42.589,52.487-56.053,63.88-17.032,14.411-32.209,22.676-41.642,22.676-19.819,0-61.325-30.15-99.21-86.026A403.385,403.385,0,0,1,32.856,72.567l.682.062a184.338,184.338,0,0,0,39.4-.732l-1.124-.873A183.549,183.549,0,0,1,33.63,71.618Zm329.922,2.938.179-.024a379.365,379.365,0,0,1-20.4,121.815,395.878,395.878,0,0,1-31.543,69.733l.835.583a396.862,396.862,0,0,0,31.667-69.99,380.253,380.253,0,0,0,20.46-122.708v-.23l-.173-.152c-.185-.161-.189-.162-1.154-.032a162.633,162.633,0,0,1-39.532.189l-.9.9A163.418,163.418,0,0,0,363.552,74.556Zm-324.7-1.011c-1.394-.128-1.4-.129-1.584.044l-.166.153v.223a391.764,391.764,0,0,0,67.068,218.809c36.895,54.415,77.48,83.777,96.936,83.777,18.664,0,59.476-31.528,95.467-84.288q5.649-8.281,10.87-16.842l-.834-.582q-5.22,8.564-10.874,16.853c-35.8,52.483-76.228,83.845-94.629,83.845-19.2,0-59.4-29.206-96.1-83.331A390.742,390.742,0,0,1,38.12,74.5l.644.059a178.947,178.947,0,0,0,36.887-.546l-1.143-.889A178.474,178.474,0,0,1,38.856,73.545Zm5.226,1.925c-1.355-.124-1.357-.124-1.545.047l-.166.153v.224a379.139,379.139,0,0,0,64.907,211.759c35.706,52.664,74.989,81.081,93.821,81.081,18.067,0,57.569-30.513,92.4-81.575q4.966-7.279,9.579-14.786l-.832-.581q-4.623,7.5-9.584,14.8C258.019,337.372,218.9,367.72,201.1,367.72c-18.572,0-57.471-28.261-92.982-80.636A378.12,378.12,0,0,1,43.385,76.424l.605.056a173.434,173.434,0,0,0,34.357-.374l-1.142-.889A172.5,172.5,0,0,1,44.082,75.47ZM358.3,76.481l.158-.021a367.012,367.012,0,0,1-19.746,117.861,382.927,382.927,0,0,1-31.25,68.744l.835.583a383.984,383.984,0,0,0,31.374-69,367.987,367.987,0,0,0,19.8-118.754v-.231l-.173-.152c-.184-.159-.186-.159-1.132-.035a158.122,158.122,0,0,1-36.407.389l-.914.915A158.718,158.718,0,0,0,358.3,76.481Zm-5.248,1.925.134-.018A354.817,354.817,0,0,1,334.1,192.3a370.2,370.2,0,0,1-30.958,67.753l.835.582a371.176,371.176,0,0,0,31.082-68.009A355.731,355.731,0,0,0,354.2,77.822v-.231l-.174-.151c-.184-.163-.185-.161-1.107-.039a152.929,152.929,0,0,1-33.269.574l-.928.928A153.7,153.7,0,0,0,353.053,78.406ZM81.036,78.2l-1.165-.906a167.287,167.287,0,0,1-30.564.1c-1.323-.12-1.321-.12-1.506.051l-.167.152v.224c0,97.6,39.313,170.148,62.747,204.711,34.52,50.913,72.5,78.385,90.708,78.385,17.469,0,55.66-29.5,89.335-78.863q4.281-6.277,8.288-12.73l-.833-.582q-4.02,6.451-8.293,12.74C256.1,330.571,218.3,359.9,201.089,359.9c-17.948,0-55.545-27.316-89.869-77.941C87.9,247.561,48.792,175.407,48.648,78.354l.567.051A167.832,167.832,0,0,0,81.036,78.2ZM286.511,276.378c-32.328,47.391-68.825,75.709-85.432,75.709-17.325,0-53.618-26.371-86.755-75.245C91.8,243.629,54.056,173.976,53.912,80.282l.528.048A162.34,162.34,0,0,0,83.7,80.271l-1.17-.91a161.371,161.371,0,0,1-28-.041c-1.285-.117-1.283-.118-1.469.054l-.166.152v.224c0,94.234,37.959,164.289,60.586,197.661,33.334,49.163,70.01,75.69,87.6,75.69,16.871,0,53.753-28.484,86.27-76.152q3.6-5.271,7-10.672l-.833-.581Q290.107,271.1,286.511,276.378ZM330.447,190.6A343.508,343.508,0,0,0,348.929,79.75v-.231l-.173-.151c-.182-.161-.2-.158-1.083-.042a147.972,147.972,0,0,1-30.105.733l-.936.935a148.721,148.721,0,0,0,31.175-.663c.038-.005.073-.01.108-.013a342.541,342.541,0,0,1-18.428,109.954,357.328,357.328,0,0,1-30.681,66.751l.833.582A358.324,358.324,0,0,0,330.447,190.6Zm13.21-108.922v-.231l-.174-.151c-.182-.16-.2-.159-1.056-.045a142.563,142.563,0,0,1-26.911.86l-.945.945a143.807,143.807,0,0,0,27.988-.8l.083-.011c-.134,75.506-26.675,135.484-48.2,171.73l.833.582C316.925,218.117,343.657,157.727,343.657,81.677Zm-60.223,189.6c-31.17,45.693-66.356,73-82.364,73-8.626,0-21.893-6.907-36.4-18.951-11.384-9.452-28.822-26.425-47.247-53.6C95.715,239.7,59.319,172.546,59.177,82.211l.49.045a156.551,156.551,0,0,0,26.689.079l-1.186-.923a155.8,155.8,0,0,1-25.411-.166c-1.247-.114-1.246-.115-1.43.056l-.166.152v.224c0,90.874,36.605,158.431,58.425,190.613,32.146,47.411,67.519,72.994,84.482,72.994,16.272,0,51.843-27.47,83.2-73.44,1.8-2.639,3.708-5.536,5.678-8.635l-.832-.581C287.145,265.732,285.236,268.631,283.434,271.273Zm54.95-187.668v-.23l-.173-.152c-.183-.158-.214-.154-1.032-.047a137.229,137.229,0,0,1-23.677.948l-.962.962a138.394,138.394,0,0,0,24.773-.905l.056-.007c-.134,73.71-26.4,132.031-47.274,166.77l.833.581C311.926,216.6,338.384,157.859,338.384,83.605ZM280.358,266.17c-30.011,43.994-63.887,70.285-79.3,70.285-8.3,0-21.073-6.65-35.037-18.245-10.961-9.1-27.752-25.444-45.493-51.61-20.9-30.834-55.948-95.484-56.09-182.461l.448.042a150.755,150.755,0,0,0,24.1.2l-1.2-.937a149.731,149.731,0,0,1-22.809-.278c-1.2-.11-1.2-.11-1.387.058l-.167.153v.223c0,87.513,35.252,152.572,56.265,183.564,30.959,45.661,65.03,70.3,81.369,70.3,15.675,0,49.936-26.456,80.136-70.728,1.4-2.05,2.861-4.254,4.369-6.592l-.833-.581C283.223,261.91,281.757,264.118,280.358,266.17Zm-3.075-5.106c-28.854,42.3-61.42,67.574-76.233,67.574-7.978,0-20.253-6.393-33.676-17.538-10.539-8.751-26.682-24.464-43.74-49.622-20.1-29.642-53.784-91.8-53.929-175.41l.409.038a145.021,145.021,0,0,0,21.482.305l-1.216-.946A143.892,143.892,0,0,1,70.206,85.1c-1.162-.105-1.165-.106-1.349.061l-.166.153v.224c0,84.152,33.9,146.712,54.1,176.514,29.772,43.91,62.539,67.6,78.255,67.6,15.077,0,48.027-25.442,77.07-68.016.981-1.438,2-2.974,3.041-4.56l-.832-.581C279.289,258.085,278.266,259.624,277.283,261.064Zm55.829-175.53V85.3l-.173-.152c-.182-.159-.216-.155-1.006-.05a131.637,131.637,0,0,1-20.408,1l-.98.979a132.633,132.633,0,0,0,21.521-.974l.031,0c-.138,71.91-26.145,128.6-46.346,161.81l.832.581C306.91,215.1,333.112,157.99,333.112,85.534ZM274.206,255.96c-27.7,40.6-58.95,64.862-73.166,64.862-7.655,0-19.434-6.135-32.317-16.831-10.116-8.4-25.612-23.484-41.985-47.633C107.446,227.905,75.111,168.251,74.969,88l.371.033a138.774,138.774,0,0,0,18.839.388l-1.234-.959a137.333,137.333,0,0,1-17.513-.439c-1.128-.1-1.129-.1-1.311.064l-.166.153v.224c0,80.791,32.544,140.854,51.943,169.465,28.585,42.16,60.05,64.909,75.142,64.909,14.48,0,46.119-24.426,74-65.3.558-.817,1.128-1.668,1.706-2.535l-.832-.58C275.339,254.287,274.766,255.14,274.206,255.96Zm53.634-168.5v-.231l-.173-.151c-.182-.16-.226-.153-.986-.053a125.1,125.1,0,0,1-17.088,1.006l-1,1a126.832,126.832,0,0,0,18.218-1h.01c-.138,70.15-25.918,125.2-45.434,156.838l.833.582C301.86,213.624,327.84,158.159,327.84,87.462ZM277.027,241.823l.832.581c18.924-30.225,44.708-84.067,44.708-153.014v-.231l-.173-.151c-.182-.159-.226-.152-.96-.056a118.808,118.808,0,0,1-13.714.954L306.7,90.93a119.9,119.9,0,0,0,14.856-.971C321.41,158.358,295.829,211.779,277.027,241.823ZM96.729,90.4l-1.255-.977a131.282,131.282,0,0,1-14.816-.48c-1.09-.1-1.091-.1-1.272.067l-.167.152v.224c0,77.431,31.191,134.994,49.783,162.416,27.4,40.409,57.559,62.214,72.028,62.214,13.882,0,44.211-23.413,70.938-62.593.115-.168.236-.351.352-.522l-.832-.58c-.118.173-.241.36-.358.531-26.538,38.9-56.482,62.15-70.1,62.15-7.332,0-18.614-5.878-30.956-16.126-9.7-8.05-24.543-22.5-40.233-45.644-18.484-27.261-49.463-84.42-49.607-161.309l.332.029A132.614,132.614,0,0,0,96.729,90.4ZM89.914,92.87l-.166.153v.223c0,70.71,28.483,123.277,45.46,148.318,25.025,36.908,52.58,56.823,65.8,56.823,12.686,0,40.4-21.384,64.806-57.169,17.257-25.3,46.207-78.161,46.207-147.972v-.23l-.173-.152c-.18-.156-.238-.15-.913-.061-1.591.211-3.912.469-6.766.652L303.1,94.531c3.367-.181,6.1-.476,7.913-.714-.157,69.254-28.886,121.7-46.03,146.829-14.384,21.087-27.925,34.417-36.753,41.887-11.146,9.431-21.066,14.84-27.215,14.84-6.684,0-16.975-5.363-28.236-14.713-8.849-7.349-22.4-20.541-36.726-41.666-16.87-24.88-45.141-77.044-45.285-147.21l.258.024c2.649.242,6.328.473,10.695.474L100.4,93.26c-3.752-.041-6.934-.247-9.288-.462C90.092,92.707,90.094,92.706,89.914,92.87ZM95.177,94.8l-.166.152v.224c0,67.348,27.13,117.416,43.3,141.268C162.149,271.6,188.4,290.57,201,290.57c12.088,0,38.487-20.369,61.74-54.457,16.437-24.095,44.011-74.446,44.011-140.938v-.231l-.174-.152c-.179-.157-.242-.146-.888-.064-.842.111-1.908.237-3.147.356L301.423,96.2c1.742-.147,3.207-.313,4.313-.458-.157,65.939-27.51,115.867-43.834,139.8-13.7,20.08-26.593,32.775-35,39.887-10.612,8.979-20.053,14.128-25.9,14.128-6.36,0-16.155-5.1-26.876-14.007-8.426-7-21.333-19.56-34.972-39.676-16.064-23.691-42.982-73.354-43.126-140.16l.221.02c2.041.187,4.732.366,7.885.428l-1.349-1.049c-2.536-.081-4.725-.232-6.444-.388C95.38,94.636,95.358,94.633,95.177,94.8Zm5.263,1.927-.165.152V97.1c0,63.988,25.775,111.559,41.14,134.218,22.651,33.408,47.6,51.434,59.575,51.434,11.49,0,36.579-19.355,58.674-51.745,15.617-22.893,41.815-70.732,41.815-133.907v-.231l-.173-.151a.4.4,0,0,0-.278-.122l-1.148,1.148c.2-.024.4-.049.584-.073-.158,62.618-26.134,110.037-41.638,132.764-13.011,19.073-25.259,31.13-33.245,37.887-10.075,8.525-19.038,13.416-24.591,13.416-6.036,0-15.336-4.848-25.516-13.3-8-6.646-20.264-18.578-33.22-37.686-15.256-22.5-40.821-69.663-40.964-133.11l.178.016c1.379.127,3.075.248,5.013.331l-1.394-1.084c-1.324-.075-2.514-.164-3.527-.257C100.641,96.564,100.62,96.562,100.44,96.726Zm6.346,1.847c-.87-.078-.9-.081-1.081.082l-.166.151v.224c0,60.628,24.422,105.7,38.979,127.17,21.464,31.657,45.11,48.738,56.461,48.738,10.893,0,34.671-18.341,55.609-49.034,14.595-21.4,38.928-65.8,39.587-124.453l-1.028,1.028c-.928,57.874-24.952,101.678-39.4,122.853-12.325,18.068-23.927,29.488-31.49,35.889-9.541,8.073-18.026,12.7-23.281,12.7-14.32,0-39.526-24.555-55.621-48.293-14.449-21.31-38.659-65.976-38.8-126.06l.139.013c.617.056,1.3.11,2.046.161l-1.451-1.128C107.12,98.6,106.946,98.588,106.786,98.573Zm4.022,2.781a216.526,216.526,0,0,0,36.814,119.724c20.276,29.907,42.619,46.043,53.348,46.043,10.294,0,32.763-17.327,52.542-46.322,13.492-19.778,35.8-60.366,37.334-114.019l-1.052,1.053c-1.791,52.855-23.783,92.843-37.12,112.4-11.638,17.06-22.593,27.845-29.736,33.888-9,7.621-17.013,11.991-21.968,11.991-13.517,0-37.311-23.184-52.508-45.6a215.538,215.538,0,0,1-36.634-118.362Zm5.292,4.117a203.943,203.943,0,0,0,34.626,110.486c19.088,28.156,40.129,43.347,50.234,43.347,9.7,0,30.854-16.311,49.476-43.61,12.377-18.145,32.64-54.893,34.995-103.5l-1.065,1.066c-2.6,47.807-22.547,83.947-34.768,101.861-10.952,16.055-21.261,26.2-27.981,31.889-8.471,7.168-16,11.279-20.657,11.279-12.711,0-35.1-21.813-49.4-42.9a202.954,202.954,0,0,1-34.438-109.121ZM409.816,319.814l-.432-.917-18.146,8.556L389.169,326l17.6-8.3-.432-.917-18.118,8.543-2.07-1.452,17.568-8.284-.432-.917-18.091,8.53-2.07-1.453,17.543-8.272-.432-.917-18.066,8.519L380.1,319.63l17.515-8.258-.432-.917-18.038,8.5-2.07-1.453,17.488-8.246-.432-.917-18.011,8.492-2.069-1.453,17.461-8.233-.431-.917-17.985,8.48-102.027-71.62-.12.167C289.17,215.7,317.3,161.75,317.3,91.318v-.231l-.174-.151c-.18-.158-.235-.15-.934-.059-2.227.3-5.816.68-10.284.845l-1.045,1.045a113.088,113.088,0,0,0,11.422-.879c-.158,72.573-30.262,127.529-48.227,153.863-15.07,22.092-29.258,36.059-38.507,43.885-11.681,9.884-22.079,15.553-28.527,15.553-7.008,0-17.794-5.62-29.6-15.42-9.272-7.7-23.473-21.521-38.48-43.654-17.676-26.071-47.3-80.733-47.446-154.26l.3.028a126.722,126.722,0,0,0,13.446.475l-1.281-1c-4.955.034-9.13-.22-12.073-.488-1.052-.095-1.055-.1-1.238.069l-.166.152v.224c0,74.07,29.837,129.135,47.622,155.367,26.212,38.658,55.07,59.518,68.915,59.518,13.283,0,42.3-22.4,67.872-59.881.525-.769,1.063-1.569,1.607-2.387l133.527,93.733.59-.824-12.422-8.721ZM118.422,50.282c53.749-32.848,63.19-34.415,84.931-34.415,24.161,0,45.792,9.221,79.812,34.021,10.62,7.742,22.607,12.671,34.5,15.734l.834-.834c-11.971-3.024-24.055-7.933-34.735-15.72-34.215-24.941-56.009-34.215-80.41-34.215-21.957,0-31.478,1.574-85.46,34.563A125.783,125.783,0,0,1,79.778,64.372l1.039.808A126.3,126.3,0,0,0,118.422,50.282Zm197.783,16.8c-12-2.907-24.163-7.726-34.873-15.534-33.212-24.211-54.367-33.213-78.054-33.213-21.314,0-30.556,1.527-82.955,33.549A122.5,122.5,0,0,1,82.591,66.56l1.04.809a123,123,0,0,0,37.221-14.621c52.167-31.879,61.329-33.4,82.426-33.4,23.446,0,44.439,8.949,77.455,33.019,10.651,7.763,22.716,12.6,34.635,15.551Zm-2.294,2.294c-12.018-2.783-24.27-7.52-35.011-15.35-32.207-23.479-52.723-32.209-75.7-32.209-20.672,0-29.634,1.482-80.448,32.534A119.255,119.255,0,0,1,85.4,68.747l1.04.81a119.734,119.734,0,0,0,36.839-14.342c50.582-30.91,59.465-32.385,79.92-32.385,22.733,0,43.086,8.677,75.1,32.015,10.681,7.786,22.83,12.54,34.771,15.368Zm-2.278,2.279C299.593,69,287.246,64.36,276.469,56.5,245.263,33.755,225.386,25.3,203.127,25.3c-20.027,0-28.711,1.435-77.942,31.521a116.043,116.043,0,0,1-36.97,14.117l1.041.809a116.5,116.5,0,0,0,36.458-14.061c49-29.944,57.6-31.372,77.413-31.372,22.019,0,41.734,8.405,72.744,31.012,10.713,7.81,22.95,12.481,34.909,15.183ZM203.053,28.779c-19.386,0-27.792,1.389-75.438,30.506-11.686,7.141-24.451,11.381-36.6,13.826l1.057.822A113.244,113.244,0,0,0,128.144,60.15c47.414-28.974,55.74-30.357,74.909-30.357,21.3,0,40.381,8.133,70.387,30.009,10.754,7.838,23.094,12.4,35.077,14.967l.852-.852c-12.06-2.514-24.513-7.049-35.331-14.935C243.837,36.965,224.6,28.779,203.053,28.779Zm104.057,47.4c-12.074-2.368-24.642-6.8-35.5-14.717-29.2-21.284-47.8-29.2-68.628-29.2-18.745,0-26.872,1.343-72.932,29.491-11.572,7.072-24.239,11.2-36.241,13.531l1.062.826a109.983,109.983,0,0,0,35.708-13.492c45.828-28.006,53.875-29.342,72.4-29.342,20.589,0,39.027,7.862,68.03,29,10.8,7.87,23.246,12.331,35.244,14.755ZM269.175,63.937c-28.2-20.553-46.158-28.195-66.272-28.195-18.1,0-25.949,1.3-70.426,28.478-11.458,7-24.03,11.015-35.879,13.235l1.062.826c11.7-2.272,24.052-6.294,35.346-13.2,44.244-27.039,52.012-28.329,69.9-28.329,19.874,0,37.674,7.589,65.674,28C279.424,72.664,292,77,304.01,79.276l.867-.867C292.788,76.2,280.09,71.9,269.175,63.937ZM202.827,39.224c-17.458,0-25.027,1.251-67.919,27.462-11.349,6.936-23.832,10.831-35.527,12.933l1.073.835c11.543-2.159,23.8-6.07,34.983-12.9,42.659-26.07,50.149-27.314,67.39-27.314,19.162,0,36.323,7.317,63.319,27,10.9,7.946,23.61,12.162,35.631,14.273l.874-.874c-12.094-2.046-24.936-6.221-35.907-14.219C239.553,46.594,222.23,39.224,202.827,39.224Zm-.075,3.481c-16.815,0-24.105,1.2-65.414,26.448C126.093,76.026,113.7,79.8,102.155,81.778l1.079.839c11.39-2.04,23.561-5.83,34.633-12.6,41.076-25.1,48.286-26.3,64.885-26.3,18.447,0,34.969,7.045,60.962,25.994,10.966,7.993,23.831,12.064,35.856,14l.882-.882c-12.1-1.869-25.1-5.893-36.139-13.94C238.124,49.8,221.44,42.705,202.752,42.705Zm95.52,42.309C286.185,83.335,273,79.476,261.881,71.372c-25.184-18.359-41.229-25.185-59.2-25.185-16.173,0-23.184,1.158-62.908,25.434-11.142,6.809-23.464,10.457-34.843,12.311l1.078.84c11.235-1.918,23.324-5.582,34.293-12.285C179.789,48.352,186.721,47.2,202.677,47.2c17.734,0,33.618,6.772,58.606,24.99,11.036,8.045,24.073,11.966,36.091,13.72Zm-2.16,2.16c-12.063-1.476-25.461-5.158-36.662-13.323C235.27,56.224,219.863,49.669,202.6,49.669c-15.533,0-22.265,1.113-60.4,24.419-11.049,6.752-23.3,10.259-34.526,11.982l1.1.856c11.075-1.791,23.088-5.331,33.955-11.972,37.9-23.165,44.558-24.27,59.874-24.27,17.019,0,32.264,6.5,56.249,23.987,11.121,8.106,24.358,11.848,36.359,13.4ZM293.984,89.3c-12.02-1.259-25.66-4.731-36.965-12.974-23.178-16.9-37.946-23.177-54.492-23.177-14.888,0-21.342,1.065-57.9,23.4-10.956,6.7-23.155,10.067-34.207,11.653l1.1.855c10.914-1.658,22.862-5.058,33.637-11.642,36.323-22.2,42.7-23.256,57.368-23.256,16.3,0,30.912,6.229,53.894,22.983,11.22,8.179,24.684,11.722,36.65,13.067ZM291.889,91.4c-11.95-1.025-25.873-4.259-37.3-12.591-22.172-16.164-36.3-22.173-52.135-22.173-14.246,0-20.422,1.019-55.392,22.39-10.876,6.647-23.031,9.862-33.914,11.3l1.118.87c10.746-1.518,22.64-4.778,33.325-11.307,34.738-21.229,40.833-22.242,54.863-22.242,15.591,0,29.56,5.957,51.537,21.979,11.336,8.264,25.063,11.583,36.97,12.7Zm-2.059,2.059c-11.842-.775-26.1-3.735-37.674-12.172-21.17-15.432-34.662-21.17-49.779-21.17-13.6,0-19.5.973-52.885,21.376-10.8,6.6-22.928,9.659-33.63,10.948l1.127.877c10.572-1.372,22.424-4.478,33.032-10.959,33.153-20.262,38.969-21.228,52.356-21.228,14.877,0,28.206,5.685,49.181,20.976,11.473,8.363,25.513,11.424,37.327,12.3Zm-2.017,2.017c-11.674-.5-26.337-3.144-38.088-11.71C229.558,69.061,216.705,63.6,202.3,63.6c-12.96,0-18.576.927-50.38,20.361-10.74,6.563-22.856,9.448-33.366,10.577l1.144.89c10.388-1.22,22.215-4.163,32.751-10.6C184.022,65.53,189.559,64.61,202.3,64.61c14.162,0,26.853,5.413,46.825,19.973,11.639,8.484,26.053,11.241,37.724,11.852Zm-40.519-9.232c-19.164-13.97-31.378-19.163-45.068-19.163-12.318,0-17.655.88-47.873,19.347-10.694,6.536-22.821,9.229-33.124,10.189l1.164.905c10.19-1.057,22.01-3.825,32.489-10.229,29.985-18.324,35.243-19.2,47.345-19.2,13.448,0,25.5,5.141,44.468,18.969,11.847,8.634,26.717,11.032,38.168,11.362l.99-.99C274.432,97.218,259.274,94.976,247.294,86.241Zm36.661,13.091c-11.026.088-26.823-1.667-39.093-10.613-18.159-13.238-29.736-18.16-42.71-18.16-11.675,0-16.734.835-45.368,18.333-10.665,6.517-22.835,9-32.907,9.78l1.179.918c9.976-.883,21.819-3.455,32.256-9.833,28.4-17.356,33.382-18.184,44.84-18.184,10.785,0,21.59,3.005,42.112,17.966,12.114,8.831,27.561,10.776,38.678,10.8Zm-1.82,1.819c-10.386.4-27.036-.718-39.7-9.954-17.157-12.507-28.093-17.156-40.354-17.156-11.033,0-15.813.788-42.863,17.318-10.659,6.514-22.914,8.761-32.723,9.347l1.2.937c9.734-.7,21.632-3.054,32.047-9.419,26.817-16.388,31.517-17.169,42.334-17.169,10.179,0,20.381,2.837,39.756,16.962,12.471,9.091,28.676,10.462,39.257,10.179ZM240,93.675C223.846,81.9,213.548,77.522,202,77.522c-10.389,0-14.89.743-40.356,16.3-10.687,6.531-23.083,8.5-32.578,8.884l1.227.954c9.456-.5,21.455-2.6,31.88-8.973C187.408,79.272,191.829,78.536,202,78.536c9.575,0,19.171,2.67,37.4,15.959,12.977,9.461,30.259,10.047,39.929,9.46l1.092-1.092C271.17,103.551,253.26,103.342,240,93.675Z"/><path class="shield_center" d="M391.857,328.49l-4.4,17.4-.984-.249,4.4-17.4Zm-3.983-2.374-4.4,17.4.984.25,4.4-17.4Zm-3-2.126-4.4,17.4.984.249,4.4-17.4Zm-3-2.124-4.4,17.4.984.249,4.4-17.4Zm-3-2.125-4.4,17.4.983.249,4.4-17.4Zm-3-2.125-4.4,17.4.983.249,4.4-17.4Zm-3-2.124-4.4,17.4.984.249,4.4-17.4ZM267.242,124.14c-2.561,36.577-17.85,64.223-27.3,78.07-14.639,21.46-31.29,34.284-38.932,34.284-7.961,0-24.52-11.943-39.528-34.078a160.144,160.144,0,0,1-27.22-88.221L36.411,37.616l-18.4,7.535-.383-.939L35.492,36.9,33.5,35.338,15.072,42.884l-.383-.938,17.893-7.327L30.59,33.061,12.134,40.618l-.383-.939,17.92-7.337L27.68,30.783,9.2,38.352l-.383-.938,17.948-7.349-1.992-1.559L6.259,36.085l-.383-.938,17.975-7.361-1.992-1.558L3.322,33.819l-.384-.938,18-7.371-1.991-1.56L.383,31.552,0,30.614l18.03-7.383L6.077,13.877l.632-.792,127.833,100.04c.125-.064.282-.051.753-.008,6.218.567,22.059,1.047,34.8-6.735,20.018-12.231,23.56-12.815,31.74-12.815,9.09,0,17.193,3.443,29.9,12.7,12.374,9.02,29.929,7.528,35.013,6.852.406-.052.53-.07.707.087l.173.151v.23c0,3.063-.1,6.065-.279,9.016l86.949-87.288L349,16.149l.977-.269,5.134,18.611L356.9,32.7l-5.3-19.2.978-.269,5.142,18.639,1.785-1.792-5.3-19.225.977-.269,5.15,18.667,1.785-1.791L356.8,8.209l.978-.269,5.158,18.7,1.785-1.792L359.4,5.563l.978-.269,5.165,18.724,1.785-1.792L362,2.916l.977-.269L368.152,21.4l1.785-1.792L364.6.268,365.578,0l5.182,18.781L381.472,8.028l.711.722Zm-.638-9.979c-5.5.7-23.007,2.016-35.477-7.072-14.286-10.415-21.8-12.508-29.3-12.508-7.963,0-11.426.577-31.211,12.667-12.947,7.911-28.98,7.463-35.348,6.885a159.094,159.094,0,0,0,27.053,87.714c11.209,16.533,28.745,33.633,38.688,33.633,7.219,0,23.836-12.938,38.1-33.841C249.33,186.654,266.448,155.419,266.6,114.161Zm-13.131,9.531.174.152v.23c0,33.03-13.7,58.041-21.865,70.011-11.576,16.967-24.761,27.106-30.82,27.106-13.164,0-52.8-39.222-52.8-97.12v-.224l.165-.152c.173-.156.276-.146.771-.1,4.9.449,17.374.825,27.4-5.3,15.825-9.67,18.63-10.131,25.11-10.131,7.2,0,13.614,2.723,23.661,10.047,9.731,7.095,23.554,5.918,27.56,5.39C253.163,123.555,253.3,123.538,253.473,123.692Zm-.841.955c-4.487.555-18.179,1.51-27.96-5.618-11.254-8.2-17.168-9.853-23.063-9.853-6.264,0-8.989.455-24.581,9.983-10.168,6.213-22.734,5.909-27.85,5.458a125.462,125.462,0,0,0,21.333,69.059c11.247,16.588,24.314,26.5,30.451,26.5,5.67,0,18.746-10.194,29.982-26.665C239,181.71,252.473,157.12,252.632,124.647Zm-57.591,48.377-14.1-13.307-.695.737,14.831,14,29.583-30.9-.732-.7Z"/></svg>
